<?xml version="1.0" encoding="utf-8"?>
<!-- Generator: Adobe Illustrator 24.2.0, SVG Export Plug-In . SVG Version: 6.00 Build 0)  -->
<svg version="1.0" id="Layer_1" xmlns="http://www.w3.org/2000/svg" xmlns:xlink="http://www.w3.org/1999/xlink" x="0px" y="0px"
	 viewBox="0 0 32 32" enable-background="new 0 0 32 32" xml:space="preserve">
<rect fill="none" width="32" height="32"/>
<path d="M9.4,20h0.2l1.4,8.8c0,0.2,0.1,0.3,0.2,0.5l1.1,0.9H6.7l1.1-0.9C7.9,29.2,8,29,8,28.8L9.4,20z M11,19.7l4.2,2.3
	c0.2,0.1,0.3,0.1,0.5,0.1l1.6-0.3c0.2,0,0.3-0.1,0.4-0.3l-0.9,6.1l-2.6,2.3l-1.9-1.6L11,19.7z M14,18.9l2,1.1l0.2,0.5l-0.5,0.1
	l-2.4-1.4L14,18.9z M6.7,17.9c0.1,0.2,0.2,0.4,0.3,0.6l-3.7,2.1l-0.5-0.1L2.9,20L6.7,17.9z M19.9,16.7c0.2,0,0.3,0,0.5,0
	c0.2,0,0.3,0,0.5,0l1.7,11.4c0,0.2,0.1,0.3,0.2,0.4l1.9,1.6h-8.6l1.9-1.6c0.1-0.1,0.2-0.3,0.2-0.4L19.9,16.7z M18.5,16.4l-0.7,4.5
	l-0.5-1.5C17.2,19.2,17.1,19,17,19l-1.5-0.9L18.5,16.4z M9.5,15.6c0.4,0,0.8,0.2,1.1,0.5c0,0.1,0,0.1-0.1,0.2l-0.6,1.9
	c0,0.1,0,0.2,0,0.3c-0.1,0-0.2,0.1-0.4,0c-0.8-0.1-1.4-0.8-1.3-1.6C8.2,16.2,8.8,15.7,9.5,15.6L9.5,15.6z M23.9,14.1L29,17l0.3,0.9
	l-1,0.2l-5-2.9C23.6,14.9,23.8,14.5,23.9,14.1L23.9,14.1z M16.9,14.1c0.1,0.4,0.3,0.8,0.6,1.2l-5,2.9l-1-0.2l0.3-0.9L16.9,14.1z
	 M20.4,10.9c1.2,0,2.2,1,2.2,2.2c0,1.2-1,2.2-2.2,2.2c-1.2,0-2.2-1-2.2-2.2c0,0,0,0,0,0C18.2,11.9,19.1,10.9,20.4,10.9
	C20.3,10.9,20.4,10.9,20.4,10.9L20.4,10.9z M9.5,9l0.4,0.4v4.7H9.5H9.1V9.4L9.5,9z M20.3,0c-0.2,0-0.4,0.1-0.5,0.3l-1.5,2.2
	c-0.1,0.1-0.1,0.3-0.1,0.4v7.6c-0.7,0.5-1.2,1.4-1.4,2.3l-5,2.9c-0.1-0.2-0.3-0.4-0.5-0.5V9.6c0-0.2-0.1-0.4-0.2-0.5L10,7.9
	C9.9,7.7,9.6,7.6,9.4,7.6c-0.2,0-0.4,0.1-0.5,0.2L7.8,9.1C7.7,9.2,7.6,9.4,7.6,9.6v5.6c-0.5,0.4-0.8,0.9-1,1.4L2,19.3
	c-0.2,0.1-0.3,0.2-0.3,0.4l-0.5,1.5c-0.1,0.4,0.1,0.8,0.5,0.9c0,0,0,0,0,0l1.6,0.3c0.2,0,0.4,0,0.5-0.1l4.2-2.4l-1.3,8.6
	c0,0-2.1,1.8-2.2,1.9H3.6c-0.4,0-0.7,0.4-0.7,0.8c0,0.4,0.4,0.7,0.8,0.7h24c0.4,0,0.7-0.3,0.7-0.7s-0.3-0.7-0.7-0.7c0,0,0,0,0,0
	h-0.8c0-0.1-2.8-2.5-2.8-2.5l-1.7-11.2l5.5,3.1C28,20,28.2,20,28.3,20l2-0.4c0.4-0.1,0.6-0.5,0.5-0.9l-0.6-2
	c-0.1-0.2-0.2-0.3-0.3-0.4l-6-3.4c-0.2-0.9-0.6-1.7-1.4-2.3V8c0-0.4-0.4-0.8-0.8-0.7c0,0,0,0,0,0c-0.4,0-0.6,0.4-0.6,0.7v1.9
	c-0.2-0.1-0.5-0.1-0.7-0.1c-0.2,0-0.5,0-0.7,0.1V3.1L20.4,2l0.7,1.1v2c0,0.4,0.3,0.7,0.7,0.7c0.4,0,0.7-0.3,0.7-0.7c0,0,0,0,0,0V2.9
	c0-0.1,0-0.3-0.1-0.4L21,0.3C20.9,0.1,20.6,0,20.3,0z"/>
</svg>
