<?xml version="1.0" encoding="utf-8"?>
<!-- Generator: Adobe Illustrator 24.2.0, SVG Export Plug-In . SVG Version: 6.00 Build 0)  -->
<svg version="1.0" id="Layer_1" xmlns="http://www.w3.org/2000/svg" xmlns:xlink="http://www.w3.org/1999/xlink" x="0px" y="0px"
	 viewBox="0 0 32 32" enable-background="new 0 0 32 32" xml:space="preserve">
<rect fill="none" width="32" height="32"/>
<g>
	<path d="M22.7,8.3V6.7c0-0.3-0.2-0.5-0.5-0.5h-1.5v-1h1v-1h-1v-1h3.1v-1h-3.6c-0.3,0-0.5,0.2-0.5,0.5v1.5h-1V2.1c0-0.6,0.5-1,1-1
		h4.1V0h-4.1c-1.1,0-2.1,0.9-2.1,2.1v2.1h-1v1h1v1h-3.1v-1h1v-1h-1V2.1c0-1.1-0.9-2.1-2.1-2.1H8.3v1h4.1c0.6,0,1,0.5,1,1v2.1h-1V2.6
		c0-0.3-0.2-0.5-0.5-0.5H8.3v1h3.1v1h-1v1h1v1H9.8c-0.3,0-0.5,0.2-0.5,0.5v1.6c-1.7,0.3-3.1,1.8-3.1,3.6v12.4c0,1.8,1.3,3.3,3.1,3.6
		v3.7c0,0.3,0.2,0.5,0.5,0.5h2.1c0.3,0,0.5-0.2,0.5-0.5v-1.5h7.2v1.5c0,0.3,0.2,0.5,0.5,0.5h2.1c0.3,0,0.5-0.2,0.5-0.5v-3.7
		c1.7-0.3,3.1-1.8,3.1-3.6V11.9C25.8,10.1,24.5,8.6,22.7,8.3z M21.7,7.2v1h-1v-1H21.7z M18.6,8.3v-1h1v1H18.6z M18.6,5.2h1v1h-1V5.2
		z M17.5,7.2v1h-3.1v-1H17.5z M12.4,8.3v-1h1v1H12.4z M12.4,5.2h1v1h-1V5.2z M11.4,7.2v1h-1v-1H11.4z M21.7,31h-1v-1.5
		c0-0.3-0.2-0.5-0.5-0.5h-8.3c-0.3,0-0.5,0.2-0.5,0.5V31h-1v-3.1h11.4V31z M20.2,17.3c-0.6,1.2-1.7,2.1-2.9,2.4L16.5,20v-0.9
		c0-1.4,1.2-2.6,2.6-2.6h3.6v1.5c0,1.4-1.2,2.6-2.6,2.6h-2.3c1.4-0.5,2.6-1.5,3.3-2.9L20.2,17.3z M15.5,22l-0.7-0.2
		c-1.3-0.4-2.3-1.3-2.9-2.4l-0.9,0.5c0.7,1.4,1.9,2.4,3.3,2.9h-2.3c-1.4,0-2.6-1.2-2.6-2.6v-1.5h3.6c1.4,0,2.6,1.2,2.6,2.6V22z
		 M24.8,24.3c0,1.4-1.2,2.6-2.6,2.6h-5.7v-3.6v-1.5h3.6c2,0,3.6-1.6,3.6-3.6V16c0-0.3-0.2-0.5-0.5-0.5h-4.1c-1.8,0-3.4,1.4-3.6,3.2
		c-0.7-0.7-1.6-1.1-2.6-1.1H8.8c-0.3,0-0.5,0.2-0.5,0.5v2.1c0,2,1.6,3.6,3.6,3.6h3.6v3.1H9.8c-1.4,0-2.6-1.2-2.6-2.6V11.9
		c0-1.4,1.2-2.6,2.6-2.6h12.4c1.4,0,2.6,1.2,2.6,2.6V24.3z"/>
</g>
</svg>
