<?xml version="1.0" encoding="utf-8"?>
<!-- Generator: Adobe Illustrator 24.2.0, SVG Export Plug-In . SVG Version: 6.00 Build 0)  -->
<svg version="1.0" id="Layer_1" xmlns="http://www.w3.org/2000/svg" xmlns:xlink="http://www.w3.org/1999/xlink" x="0px" y="0px"
	 viewBox="0 0 32 32" enable-background="new 0 0 32 32" xml:space="preserve">
<path d="M32,29.1c-0.7,0-1.4-0.2-1.9-0.7c-1.6-1.2-3.7-1.2-5.3,0c-0.5,0.4-1.2,0.7-1.9,0.7c-0.7,0-1.4-0.2-1.9-0.7
	c-1.6-1.2-3.7-1.2-5.3,0c-0.5,0.4-1.2,0.7-1.9,0.7s-1.4-0.2-1.9-0.7c-0.8-0.6-1.7-0.9-2.6-0.9c-1,0-1.9,0.3-2.6,0.9
	c-0.5,0.4-1.2,0.7-1.9,0.7s-1.4-0.2-1.9-0.7c-1-0.6-1.9-0.9-2.9-0.8v2c0.7,0,1.4,0.2,1.9,0.7c0.8,0.6,1.7,0.9,2.6,0.9
	c1,0,1.9-0.3,2.6-0.9c0.5-0.4,1.2-0.7,1.9-0.7s1.4,0.2,1.9,0.7c0.8,0.6,1.7,0.9,2.6,0.9c1,0,1.9-0.3,2.6-0.9
	c0.5-0.4,1.2-0.7,1.9-0.7c0.7,0,1.4,0.2,1.9,0.7c1.6,1.2,3.7,1.2,5.3,0c1.1-0.9,2.7-0.9,3.9,0c0.8,0.6,1.7,0.9,2.6,0.9v-2.1H32z
	 M32,27.5c-1,0-1.9-0.3-2.6-0.9c-1.1-0.9-2.7-0.9-3.9,0c-1.6,1.2-3.7,1.2-5.3,0C19.7,26.2,19,26,18.3,26s-1.4,0.2-1.9,0.6
	c-1.6,1.2-3.7,1.2-5.3,0c-0.6-0.4-1.3-0.6-2-0.6s-1.4,0.2-1.9,0.6c-0.8,0.6-1.7,0.9-2.6,0.9c-1,0-1.9-0.3-2.6-0.9
	C1.4,26.2,0.7,26,0,26v-2c1,0,1.9,0.3,2.6,0.9c0.5,0.4,1.2,0.7,1.9,0.7s1.4-0.2,1.9-0.7C7.3,24.3,8.2,24,9.1,24c1,0,1.9,0.3,2.6,0.9
	c1.1,0.9,2.7,0.9,3.9,0c1.6-1.2,3.7-1.2,5.3,0c0.5,0.4,1.2,0.7,1.9,0.7c0.7,0,1.4-0.2,1.9-0.7c1.6-1.2,3.7-1.2,5.3,0
	c0.5,0.4,1.2,0.7,1.9,0.7v1.9H32z"/>
<rect fill="none" width="32" height="32"/>
<path d="M16,0c-0.5,0-1,0.3-1.2,0.6c-0.3,0.3-0.5,0.8-0.7,1.2c-0.3,0.9-0.5,2.2-0.5,3.5c0,1.7,0.3,4,0.8,5.6c-0.6,0.5-1.1,1.2-1.2,2
	C11.6,13.3,9.5,14.2,8,15c-1.2,0.7-2.1,1.4-2.8,2.2c-0.3,0.4-0.6,0.8-0.7,1.2c-0.2,0.4-0.2,0.9,0.1,1.4c0.3,0.5,0.7,0.7,1.2,0.8
	c0.4,0.1,0.9,0,1.4,0c1-0.2,2.1-0.6,3.3-1.3c1.5-0.8,3.3-2.2,4.4-3.4c0.4,0.2,0.7,0.2,1.1,0.2c0.4,0,0.8-0.1,1.1-0.2
	c1.2,1.2,3,2.6,4.4,3.4c1.2,0.7,2.3,1.1,3.3,1.3c0.5,0.1,1,0.1,1.4,0c0.4-0.1,0.9-0.3,1.2-0.8c0.3-0.5,0.2-1,0.1-1.4
	c-0.2-0.4-0.4-0.8-0.7-1.2c-0.7-0.8-1.6-1.5-2.8-2.2c-1.5-0.8-3.6-1.7-5.2-2.1c-0.1-0.8-0.5-1.5-1.2-2c0.5-1.6,0.8-3.9,0.8-5.6
	c0-1.3-0.2-2.6-0.5-3.5c-0.2-0.5-0.4-0.9-0.7-1.2C17,0.3,16.5,0,16,0L16,0z M16,1.6C16,1.6,16,1.6,16,1.6c0.1,0.2,0.3,0.4,0.4,0.8
	c0.3,0.7,0.4,1.8,0.4,3c0,1.5-0.3,3.7-0.7,5c-0.1,0-0.1,0-0.2,0c-0.1,0-0.1,0-0.2,0c-0.4-1.4-0.7-3.6-0.7-5c0-1.2,0.2-2.3,0.4-3
	C15.7,2,15.9,1.8,16,1.6C16,1.6,16,1.6,16,1.6L16,1.6z M13.5,14.5c0.1,0.1,0.1,0.2,0.2,0.3c-1,1-2.8,2.4-4,3.1c-1,0.6-2.1,1-2.8,1.1
	c-0.4,0.1-0.7,0.1-0.8,0c0,0,0,0,0,0c0,0,0,0,0,0c0.1-0.2,0.2-0.4,0.5-0.7c0.5-0.6,1.3-1.3,2.4-1.9C10.1,15.7,12.1,14.8,13.5,14.5
	L13.5,14.5z M18.5,14.5c1.4,0.3,3.4,1.2,4.7,1.9c1,0.6,1.9,1.3,2.4,1.9c0.2,0.3,0.4,0.5,0.5,0.7c0,0,0,0,0,0c0,0,0,0,0,0
	c-0.2,0-0.5,0-0.8,0c-0.7-0.1-1.8-0.5-2.8-1.1c-1.3-0.7-3-2.1-4-3.1C18.4,14.7,18.5,14.6,18.5,14.5L18.5,14.5z"/>
</svg>
