<?xml version="1.0" encoding="utf-8"?>
<!-- Generator: Adobe Illustrator 24.2.0, SVG Export Plug-In . SVG Version: 6.00 Build 0)  -->
<svg version="1.0" id="Layer_1" xmlns="http://www.w3.org/2000/svg" xmlns:xlink="http://www.w3.org/1999/xlink" x="0px" y="0px"
	 viewBox="0 0 32 32" enable-background="new 0 0 32 32" xml:space="preserve">
<g>
	<path d="M32,29.1c-0.7,0-1.4-0.2-1.9-0.7c-1.6-1.2-3.7-1.2-5.3,0c-0.5,0.4-1.2,0.7-1.9,0.7c-0.7,0-1.4-0.2-1.9-0.7
		c-1.6-1.2-3.7-1.2-5.3,0c-0.5,0.4-1.2,0.7-1.9,0.7c-0.7,0-1.4-0.2-1.9-0.7c-0.8-0.6-1.7-0.9-2.6-0.9c-1,0-1.9,0.3-2.6,0.9
		c-0.5,0.4-1.2,0.7-1.9,0.7c-0.7,0-1.4-0.2-1.9-0.7C1.9,27.8,1,27.5,0,27.6v2c0.7,0,1.4,0.2,1.9,0.7c0.8,0.6,1.7,0.9,2.6,0.9
		c1,0,1.9-0.3,2.6-0.9c0.5-0.4,1.2-0.7,1.9-0.7c0.7,0,1.4,0.2,1.9,0.7c0.8,0.6,1.7,0.9,2.6,0.9c1,0,1.9-0.3,2.6-0.9
		c0.5-0.4,1.2-0.7,1.9-0.7c0.7,0,1.4,0.2,1.9,0.7c1.6,1.2,3.7,1.2,5.3,0c1.1-0.9,2.7-0.9,3.9,0c0.8,0.6,1.7,0.9,2.6,0.9V29.1z
		 M32,27.5c-1,0-1.9-0.3-2.6-0.9c-1.1-0.9-2.7-0.9-3.9,0c-1.6,1.2-3.7,1.2-5.3,0C19.7,26.2,19,26,18.3,26c-0.7,0-1.4,0.2-1.9,0.6
		c-1.6,1.2-3.7,1.2-5.3,0C10.5,26.2,9.8,26,9.1,26c-0.7,0-1.4,0.2-1.9,0.6c-0.8,0.6-1.7,0.9-2.6,0.9c-1,0-1.9-0.3-2.6-0.9
		C1.4,26.2,0.7,26,0,26v-2c1,0,1.9,0.3,2.6,0.9c0.5,0.4,1.2,0.7,1.9,0.7c0.7,0,1.4-0.2,1.9-0.7C7.3,24.3,8.2,24,9.1,24
		c1,0,1.9,0.3,2.6,0.9c1.1,0.9,2.7,0.9,3.9,0c1.6-1.2,3.7-1.2,5.3,0c0.5,0.4,1.2,0.7,1.9,0.7c0.7,0,1.4-0.2,1.9-0.7
		c1.6-1.2,3.7-1.2,5.3,0c0.5,0.4,1.2,0.7,1.9,0.7V27.5z"/>
	<path d="M24,5.1c0.1,0,0.3-0.1,0.3-0.2c0.1-0.1,0.1-0.2,0.1-0.4l-0.3-2.7h3.6l2.1,18.2L29.7,20c-0.4-0.1-0.8,0-1.2,0.2
		c-0.5-0.6-1.3-0.8-2-0.6L26.1,16c2.2-1.8,2.5-5,0.7-7.2c-1.8-2.2-5-2.5-7.2-0.7s-2.5,5-0.7,7.2c0.2,0.2,0.4,0.5,0.7,0.7l-0.4,3.4
		c-1.9-1-4.2-1-6.1,0L12.7,16c2.2-1.8,2.5-5,0.7-7.2s-5-2.5-7.2-0.7s-2.5,5-0.7,7.2C5.8,15.6,6,15.8,6.2,16l-0.4,3.6
		c-0.7-0.2-1.5,0.1-2,0.6C3.5,20,3.1,19.9,2.7,20c-0.1,0-0.2,0-0.2,0.1L4.6,1.9h3.6L7.9,4.6c0,0.1,0,0.3,0.1,0.4
		C8.1,5,8.2,5.1,8.3,5.1h4.9c0.2,0,0.4-0.1,0.4-0.3l0.8-2.9h3.5l0.8,2.9C18.8,5,19,5.1,19.2,5.1H24z M25.8,13.5
		c0.8-1.6,0.1-3.5-1.5-4.3c-1.6-0.8-3.5-0.1-4.3,1.5c-0.4,0.9-0.4,1.9,0,2.8l-0.2,1.4c-1.5-1.7-1.4-4.3,0.3-5.9s4.3-1.4,5.9,0.3
		c1.4,1.6,1.4,4,0,5.5L25.8,13.5z M23.8,11.2h-2c-0.5,0-0.9,0.2-1.3,0.5c0.2-1.3,1.4-2.1,2.7-1.8c0.9,0.2,1.7,0.9,1.8,1.8
		C24.8,11.4,24.3,11.2,23.8,11.2L23.8,11.2z M12.4,13.5c0.8-1.6,0.1-3.5-1.5-4.3s-3.5-0.1-4.3,1.5c-0.4,0.9-0.4,1.9,0,2.8l-0.2,1.4
		C4.8,13.2,5,10.5,6.7,9s4.3-1.4,5.9,0.3c1.4,1.6,1.4,4,0,5.6L12.4,13.5z M10.5,11.2h-2c-0.5,0-0.9,0.2-1.3,0.5
		c0.2-1.3,1.4-2.1,2.7-1.9c1,0.2,1.7,0.9,1.9,1.9C11.4,11.3,11,11.2,10.5,11.2L10.5,11.2z M18.7,1.2c-0.1-0.2-0.2-0.3-0.4-0.3h-4.2
		c-0.2,0-0.4,0.1-0.4,0.3l-0.8,2.9h-4l0.3-2.7c0-0.1,0-0.3-0.1-0.4C8.9,1,8.8,0.9,8.6,0.9H4.2c-0.2,0-0.4,0.2-0.5,0.4l-2.3,20
		c0,0.3,0.1,0.5,0.4,0.5c0.2,0,0.4-0.1,0.5-0.2c0-0.1,0.1-0.1,0.1-0.2c0.1-0.3,0.3-0.5,0.6-0.5c0.3-0.1,0.5,0,0.7,0.2
		c0.1,0.1,0.2,0.2,0.4,0.2c0.2,0,0.3-0.1,0.4-0.2c0.2-0.4,0.6-0.6,1-0.6c0.2,0,0.4,0.1,0.6,0.2c0.1,0.1,0.3,0.1,0.4,0
		c0.1-0.1,0.2-0.2,0.2-0.4l0.9-7.4c0.1-0.5,0.5-0.8,0.9-0.8h2c0.5,0,0.9,0.4,0.9,0.8l0.9,7.4c0,0.2,0.1,0.3,0.2,0.4
		c0.1,0.1,0.3,0.1,0.4,0H13c1.9-1.2,4.4-1.2,6.3,0c0.1,0.1,0.3,0.1,0.5,0c0.1-0.1,0.2-0.2,0.3-0.4l1-7.3c0.1-0.5,0.5-0.8,0.9-0.8h2
		c0.5,0,0.9,0.4,0.9,0.8l0.9,7.4c0,0.2,0.1,0.3,0.3,0.4c0.1,0.1,0.3,0.1,0.4,0c0.2-0.1,0.4-0.2,0.6-0.1c0.4,0,0.8,0.3,1,0.6
		c0.1,0.1,0.2,0.2,0.4,0.2c0.2,0,0.3,0,0.4-0.2c0.2-0.3,0.7-0.4,1-0.1c0.1,0.1,0.2,0.2,0.3,0.4c0,0.1,0.1,0.2,0.2,0.3
		c0.1,0.1,0.2,0.1,0.3,0.1l0,0c0.3,0,0.4-0.3,0.4-0.5l-2.3-20c0-0.2-0.2-0.4-0.4-0.4h-4.5c-0.1,0-0.3,0.1-0.3,0.2
		c-0.1,0.1-0.1,0.2-0.1,0.4l0.3,2.7h-4L18.7,1.2z"/>
</g>
<rect fill="none" width="32" height="32"/>
</svg>
