<?xml version="1.0" encoding="utf-8"?>
<!-- Generator: Adobe Illustrator 24.2.0, SVG Export Plug-In . SVG Version: 6.00 Build 0)  -->
<svg version="1.0" id="Layer_1" xmlns="http://www.w3.org/2000/svg" xmlns:xlink="http://www.w3.org/1999/xlink" x="0px" y="0px"
	 viewBox="0 0 32 32" enable-background="new 0 0 32 32" xml:space="preserve">
<rect fill="none" width="32" height="32"/>
<g>
	<path d="M9.5,10.1C9.3,9.9,9,10,8.8,10.2c0,0,0,0,0,0l-2.5,4c-0.2,0.2-0.1,0.5,0.1,0.7c0,0,0,0,0,0C6.5,15,6.6,15,6.8,15
		c0.2,0,0.3-0.1,0.4-0.2l2.5-4C9.8,10.6,9.8,10.3,9.5,10.1C9.5,10.1,9.5,10.1,9.5,10.1z"/>
	<path d="M10.2,9.5c0.2,0,0.3-0.1,0.4-0.2l1-1.5c0.2-0.2,0.2-0.5-0.1-0.7c-0.2-0.2-0.5-0.2-0.7,0.1c0,0,0,0.1-0.1,0.1l-1,1.5
		C9.6,9,9.7,9.3,9.9,9.4c0,0,0,0,0,0C10.1,9.4,10.1,9.5,10.2,9.5z"/>
	<path d="M24.2,16c-2.8,0-5-2.2-5-5c0-2.1,3.3-6.7,5-8.7c1.7,2.1,5,6.6,5,8.7C29.2,13.8,27,16,24.2,16z M14.2,31
		C8,31.1,2.9,26.2,2.8,20c0-5.6,9.5-16.5,11.5-18.8c0.9,1,3,3.4,5.2,6.3c-0.7,1-1.1,2.2-1.2,3.4c0,3.3,2.7,6,6,6c0.3,0,0.5,0,0.8,0
		c0.4,1,0.6,2,0.7,3.1C25.8,26,20.6,31,14.2,31z M23.9,1.2c-1.4,1.7-2.7,3.5-3.9,5.4c-2.8-3.6-5.4-6.4-5.4-6.4
		c-0.2-0.2-0.5-0.2-0.8,0C13.4,0.7,1.8,13.4,1.8,20c0.2,6.8,5.7,12.1,12.5,12c6.8,0.1,12.3-5.2,12.5-12c0-1.1-0.3-2.2-0.7-3.3
		c2.5-0.8,4.2-3.1,4.2-5.7c0-3.2-5.4-9.6-5.6-9.8C24.5,1,24.1,0.9,23.9,1.2C23.9,1.2,23.9,1.2,23.9,1.2z"/>
	<path d="M23.8,14c0,0.3,0.2,0.5,0.4,0.5c0,0,0,0,0.1,0c2,0,3.5-1.6,3.5-3.6c0-0.3-0.2-0.5-0.5-0.5s-0.5,0.2-0.5,0.5
		c0,1.4-1.1,2.5-2.5,2.6C24,13.5,23.8,13.7,23.8,14C23.7,14,23.7,14,23.8,14z"/>
	<path d="M12.7,25.7l2.1-5.1c0.1-0.1,0-0.3-0.1-0.5c-0.1-0.1-0.3-0.2-0.4-0.2H9.8l5.6-7.4l-1.1,5.3c0,0.1,0,0.3,0.1,0.4
		c0.1,0.1,0.2,0.2,0.4,0.2h4.9L12.7,25.7z M20.8,17.5h-5.4l1.4-6.9c0.1-0.2-0.1-0.5-0.3-0.6c-0.2-0.1-0.5,0-0.6,0.1l-7.5,10
		c-0.1,0.2-0.1,0.3,0,0.5C8.4,20.9,8.6,21,8.8,21h4.7l-2.8,6.8c-0.1,0.2,0,0.5,0.2,0.6c0.1,0,0.2,0.1,0.2,0.1c0.1,0,0.3-0.1,0.4-0.1
		l9.5-10c0.2-0.1,0.2-0.4,0.1-0.5C21.1,17.6,21,17.5,20.8,17.5z"/>
</g>
</svg>
