<?xml version="1.0" encoding="utf-8"?>
<!-- Generator: Adobe Illustrator 24.2.0, SVG Export Plug-In . SVG Version: 6.00 Build 0)  -->
<svg version="1.0" id="Layer_1" xmlns="http://www.w3.org/2000/svg" xmlns:xlink="http://www.w3.org/1999/xlink" x="0px" y="0px"
	 viewBox="0 0 32 32" enable-background="new 0 0 32 32" xml:space="preserve">
<rect fill="none" width="32" height="32"/>
<path d="M16.1,0L2.3,7.9v16.2L16,32l13.7-7.7V7.9L16.1,0z M4.6,23.9c-0.3,0.3-0.8,0.2-1.2-0.1c-0.4-0.3-0.5-0.9-0.2-1.1
	c0.3-0.3,0.8-0.2,1.2,0.1C4.8,23.1,4.9,23.6,4.6,23.9z M15,17.4c-0.3,0.3-0.8,0.2-1.2-0.1c-0.4-0.3-0.5-0.9-0.2-1.1
	c0.3-0.3,0.8-0.2,1.2,0.1C15.1,16.6,15.2,17.1,15,17.4z M19.5,28.1L18,29V14.6L5.5,7.3l1.6-1l12.4,7.2
	C19.5,13.4,19.5,28.1,19.5,28.1z M22.6,26.5L21,27.4V12.9L8.5,5.7l1.6-1l12.4,7.2L22.6,26.5L22.6,26.5z M25.6,25.1l-1.5,0.9V11.5
	L11.6,4.2l1.6-1l12.4,7.2V25.1z M28.3,23.6l-1.5,0.9V10L14.3,2.7l1.6-1l12.4,7.2V23.6z"/>
</svg>
