<?xml version="1.0" encoding="utf-8"?>
<!-- Generator: Adobe Illustrator 24.2.0, SVG Export Plug-In . SVG Version: 6.00 Build 0)  -->
<svg version="1.1" id="Layer_1" xmlns="http://www.w3.org/2000/svg" xmlns:xlink="http://www.w3.org/1999/xlink" x="0px" y="0px"
	 viewBox="0 0 32 32" style="enable-background:new 0 0 32 32;" xml:space="preserve">
<style type="text/css">
	.st0{fill:none;}
	.st1{fill:#894EC5;}
</style>
<rect class="st0" width="32" height="32"/>
<path class="st1" d="M8.7,7.7C9,8,9.1,8.6,8.7,8.9l0,0c-0.4,0.3-1,0.3-1.3,0L5.3,7C5,6.7,5,6.1,5.3,5.7l0,0c0.4-0.3,1-0.3,1.3,0
	L8.7,7.7z M4.7,15.1c0.5,0,0.9,0.4,0.9,0.9s-0.4,0.9-0.9,0.9l0,0H1.9C1.4,16.9,1,16.5,1,16s0.4-0.9,0.9-0.9l0,0H4.7z M27.3,16.9
	c-0.5,0-0.9-0.4-0.9-0.9s0.4-0.9,0.9-0.9l0,0h2.8c0.5,0,0.9,0.4,0.9,0.9s-0.4,0.9-0.9,0.9l0,0H27.3z M24.6,8.9c-0.4,0.3-1,0.3-1.3,0
	c-0.4-0.3-0.4-0.9,0-1.3l0,0l2-1.9c0.4-0.3,1-0.3,1.3,0C27,6.1,27,6.6,26.6,7l0,0L24.6,8.9z M16.9,5.1C16.9,5.6,16.5,6,16,6
	s-0.9-0.4-0.9-0.9V2.4c0-0.5,0.4-0.9,0.9-0.9s0.9,0.4,0.9,0.9V5.1z M24.5,16c0,0.5-0.4,0.9-0.9,0.9s-0.9-0.4-0.9-0.9
	c-0.1-3.6-3-6.4-6.6-6.4c-3.6-0.1-6.5,2.8-6.6,6.4c-0.1,0.5-0.5,1-1,1s-1-0.5-1-1c0.1-4.6,3.9-8.3,8.5-8.2
	C20.6,7.8,24.4,11.4,24.5,16z M5.9,24.7l-3.1,4.1h6.8l1.2-4.1H5.9z M22.4,28.7h6.8l-3.1-4.1h-4.9L22.4,28.7z M11.9,20.6H9l-1.8,2.3
	h4.1L11.9,20.6z M18.1,20.6h-4.2l-0.6,2.3h5.5L18.1,20.6z M23,20.6h-3l0.6,2.3h4.1L23,20.6z M11.6,28.7h8.8l-1.1-4.1h-6.5L11.6,28.7
	z M8.5,18.7h15.1c0.3,0,0.6,0.1,0.8,0.4l7.5,10c0.3,0.4,0.2,1-0.2,1.3c-0.2,0.1-0.4,0.2-0.6,0.2H0.9c-0.5,0-0.9-0.4-0.9-0.9
	c0-0.2,0.1-0.4,0.2-0.6l7.5-10C7.9,18.9,8.2,18.7,8.5,18.7z"/>
</svg>
