<svg id="Layer_1" data-name="Layer 1" xmlns="http://www.w3.org/2000/svg" viewBox="0 0 32 32"><path d="M31.48,31H29a37.3,37.3,0,0,1-1.53-4.55,45.16,45.16,0,0,1-1.27-6.35h0a14.89,14.89,0,0,1-.16-1.94V16.37h0a.51.51,0,0,0-.51-.52h-8.2c0-.24,0-.48-.05-.72s0-.63,0-.88,0-.48,0-.62,0-.14,0-.17v-.06a.52.52,0,0,0-.14-.39.51.51,0,0,0-.37-.16H7.14a.51.51,0,0,0-.52.55v.06c0,.11,0,.4,0,.79s0,.55,0,.88c0,.9-.12,1.8-.22,2.68h0A48.27,48.27,0,0,1,2.87,31H.52a.52.52,0,1,0,0,1h31a.52.52,0,1,0,0-1ZM25,16.87v1.26c0,.63.07,1.27.12,1.77H21.55a.52.52,0,1,0,0,1H25.3a47.24,47.24,0,0,0,1.21,5.76A40.76,40.76,0,0,0,27.91,31H21.07a47.77,47.77,0,0,1-3.63-14.1Zm-17.37-3h8.59v.37c0,.27,0,.58,0,.92,0,.76.1,1.49.17,2.23h-9c.07-.74.14-1.47.17-2.23,0-.34,0-.65,0-.92Zm-.31,4.55h9.21A49.29,49.29,0,0,0,19.94,31H4A49.29,49.29,0,0,0,7.36,18.42Z"/><path d="M22.46,0a.52.52,0,0,0-.52.52,2.84,2.84,0,0,1-.84,2,2.83,2.83,0,0,1-2,.83H15.61a3.9,3.9,0,0,0-3.89,3.9.52.52,0,0,0,1,0,2.85,2.85,0,0,1,2.86-2.86h3.47A3.89,3.89,0,0,0,23,.52.51.51,0,0,0,22.46,0Z"/><path d="M21.55,11.4a.52.52,0,0,0,.52-.52,2,2,0,0,1,1.94-2h2.54a3,3,0,0,0,3-3,.52.52,0,0,0-1,0,1.95,1.95,0,0,1-1.95,2H24a3,3,0,0,0-3,3A.52.52,0,0,0,21.55,11.4Z"/></svg>