<?xml version="1.0" encoding="UTF-8"?>
<svg width="112px" height="119px" viewBox="0 0 112 119" version="1.1" xmlns="http://www.w3.org/2000/svg" xmlns:xlink="http://www.w3.org/1999/xlink">
    <!-- Generator: Sketch 49.2 (51160) - http://www.bohemiancoding.com/sketch -->
    <title>icon hydro</title>
    <desc>Created with Sketch.</desc>
    <defs></defs>
    <g id="Page-1" stroke="none" stroke-width="1" fill="none" fill-rule="evenodd">
        <g id="2_2_Assets_Detailed-View" transform="translate(-126.000000, -820.000000)" fill="#545454" fill-rule="nonzero">
            <g id="content" transform="translate(94.000000, 559.000000)">
                <g id="icon-hydro" transform="translate(32.000000, 261.000000)">
                    <path d="M74.00512,86.5241134 C60.48672,97.0372554 51.73504,97.1972282 37.99264,86.5241134 C26.32672,95.5952471 16.41696,97.7515002 3.96704,88.0652598 L0,93.2294521 C12.21248,102.724176 25.2224,103.618672 37.99264,94.6939919 C49.88928,102.992299 62.1152,102.996805 74.00736,94.6939919 C86.79104,103.611912 99.70912,102.796276 112,93.2294521 L108.03296,88.0652598 C95.704,97.6613746 85.87936,95.7462073 74.00512,86.5241134 Z M74.00512,104.603293 C60.49344,115.118688 51.72384,115.269648 37.9904,104.603293 C26.33344,113.681186 16.408,115.821667 3.9648,106.146692 L0,111.310885 C12.21024,120.805608 25.22688,121.697851 37.99488,112.775425 C49.88256,121.073732 62.1152,121.075985 74.00736,112.775425 C86.77984,121.691092 99.7136,120.870949 112,111.310885 L108.03296,106.146692 C95.51136,115.884755 85.736,113.721743 74.00512,104.603293 Z" id="Shape"></path>
                    <polygon id="Shape" points="54.966 22 43 42.516 51.548 42.516 44.71 56.191 65.223 35.675 54.966 35.675 63.512 22"></polygon>
                    <path d="M93.778,38.888 C92.832,30.37 87.375,27.016 83.991,25.741 C82.39,22.21 80.174,19.017 77.467,16.31 L82.388,11.389 C75.701,6.041 69.473,7.519 66.177,9.009 C62.664,7.678 58.863,6.943 54.89,6.943 L54.89,0 C46.371,0.947 43.018,6.403 41.743,9.787 C38.213,11.388 35.019,13.604 32.313,16.311 L27.392,11.39 C22.043,18.077 23.522,24.305 25.012,27.601 C23.681,31.112 22.946,34.915 22.946,38.888 L16,38.888 C16.947,47.406 22.403,50.76 25.787,52.035 C27.388,55.565 29.604,58.758 32.311,61.466 L27.391,66.387 C34.078,71.735 40.306,70.256 43.602,68.767 C47.114,70.098 50.916,70.832 54.889,70.832 L54.889,77.775 C63.407,76.829 66.761,71.372 68.035,67.988 C71.566,66.387 74.759,64.172 77.466,61.464 L82.387,66.385 C87.737,59.698 86.257,53.47 84.768,50.174 C86.098,46.663 86.833,42.86 86.833,38.887 L93.778,38.887 L93.778,38.888 Z M54.889,65.276 C40.338,65.277 28.5,53.439 28.5,38.888 C28.5,24.337 40.339,12.5 54.889,12.5 L54.889,12.499 C69.44,12.499 81.278,24.337 81.278,38.888 C81.278,53.439 69.44,65.276 54.889,65.276 Z" id="Shape"></path>
                </g>
            </g>
        </g>
    </g>
</svg>