<svg width="26" height="26" viewBox="0 0 26 26" version="1.1" xmlns="http://www.w3.org/2000/svg" xmlns:xlink="http://www.w3.org/1999/xlink">
    <title>+</title>
    <desc>Created using Figma</desc>
    <g id="Canvas" transform="translate(5140 3037)">
        <g id="+">
            <use xlink:href="#path0_fill" transform="matrix(0.707107 0.707107 -0.707107 0.707107 -5127 -3036.73)" fill="#BA77FF" />
        </g>
    </g>
    <defs>
        <path id="path0_fill" fill-rule="evenodd" d="M 9.97026 7.92135L 17.2639 7.92135C 17.7547 7.92135 18 8.16854 18 8.66292L 18 9.13483C 18 9.62922 17.7547 9.8764 17.2639 9.8764L 9.97026 9.8764L 9.97026 17.2584C 9.97026 17.7528 9.72491 18 9.2342 18L 8.73234 18C 8.24163 18 7.99628 17.7528 7.99628 17.2584L 7.99628 9.8764L 0.736059 9.8764C 0.245351 9.8764 0 9.62922 0 9.13483L 0 8.66292C 0 8.16854 0.245351 7.92135 0.736059 7.92135L 7.99628 7.92135L 7.99628 0.741573C 7.99628 0.247189 8.24163 0 8.73234 0L 9.2342 0C 9.72491 0 9.97026 0.247189 9.97026 0.741573L 9.97026 7.92135Z" />
    </defs>
</svg>