<svg width="15" height="15" viewBox="0 0 15 15" version="1.1" xmlns="http://www.w3.org/2000/svg" xmlns:xlink="http://www.w3.org/1999/xlink">
    <title>ion-android-calendar - Ionicons</title>
    <desc>Created using Figma</desc>
    <g id="Canvas" transform="translate(-6741 2714)">
        <g id="ion-android-calendar - Ionicons">
            <use xlink:href="#path0_fill" transform="translate(6741 -2714)" fill="#8C6FA9" />
        </g>
    </g>
    <defs>
        <path id="path0_fill" fill-rule="evenodd" d="M 11.8479 8.10645L 11.8479 11.8479L 8.10645 11.8479L 8.10645 8.10645L 11.8479 8.10645ZM 10.6007 0L 12.4714 0L 12.4714 1.24714L 13.4067 1.24714C 13.8224 1.24714 14.1862 1.40303 14.498 1.71481C 14.8098 2.0266 14.9656 2.39034 14.9656 2.80606L 14.9656 13.4067C 14.9656 13.8224 14.8098 14.1862 14.498 14.498C 14.1862 14.8098 13.8224 14.9656 13.4067 14.9656L 1.55892 14.9656C 1.14321 14.9656 0.779462 14.8098 0.467676 14.498C 0.155891 14.1862 0 13.8224 0 13.4067L 0 2.80606C 0 2.39034 0.155891 2.0266 0.467676 1.71481C 0.779462 1.40303 1.14321 1.24714 1.55892 1.24714L 2.49427 1.24714L 2.49427 0L 4.36498 0L 4.36498 1.24714L 10.6007 1.24714L 10.6007 0ZM 13.4069 13.4068L 13.4069 5.14453L 1.55908 5.14453L 1.55908 13.4068L 13.4069 13.4068Z" />
    </defs>
</svg>