<?xml version="1.0" encoding="UTF-8"?>
<svg width="104px" height="55px" viewBox="0 0 104 55" version="1.1" xmlns="http://www.w3.org/2000/svg" xmlns:xlink="http://www.w3.org/1999/xlink">
    <!-- Generator: Sketch 49.2 (51160) - http://www.bohemiancoding.com/sketch -->
    <title>noun_863340_cc</title>
    <desc>Created with Sketch.</desc>
    <defs></defs>
    <g id="Page-1" stroke="none" stroke-width="1" fill="none" fill-rule="evenodd">
        <g id="2_2_Assets_Detailed-View" transform="translate(-128.000000, -877.000000)" fill="#545454" fill-rule="nonzero">
            <g id="content" transform="translate(94.000000, 559.000000)">
                <g id="noun_863340_cc" transform="translate(34.000000, 318.000000)">
                    <path d="M45.62792,16.2973449 C39.25584,16.2973449 33.25192,17.8623281 27.9812,20.6235163 L20.91128,13.6012353 C28.95048,7.67702501 38.76184,3.99027584 49.41248,3.47481273 L49.41248,16.4853495 C48.16656,16.3624235 46.90504,16.2973449 45.62792,16.2973449 Z M87.10832,16.8789196 L74.42344,29.4783254 C79.34784,35.1949043 82.57912,42.3948599 83.3404,50.3106792 L104,50.3106792 C102.73016,37.093544 96.46728,25.3225978 87.10832,16.8789196 Z M0,50.3106792 L7.91544,50.3106792 C8.97832,39.2452667 14.86576,29.5785257 23.46448,23.4074303 L16.89168,16.8789196 C7.53272,25.3225978 1.26984,37.093544 0,50.3106792 Z M82.99512,13.6931716 L48.09896,52.6659014 C47.95336,52.848741 47.79632,53.0243497 47.6268,53.1937604 C47.54152,53.2887957 47.45,53.3714351 47.35432,53.4468435 C44.91552,55.5985663 41.18088,55.5148939 38.844,53.1937604 C36.51336,50.8777919 36.42184,47.1776138 38.57256,44.7552471 C38.65264,44.6540139 38.74104,44.5579456 38.84192,44.4680753 C39.01144,44.2996976 39.18928,44.1447487 39.37232,44.0001298 L64.84192,21.4974277 C61.68864,19.6494046 58.24312,18.2383373 54.58856,17.3571949 L54.58856,3.47481273 C62.96784,3.88077867 70.82608,6.25046278 77.71192,10.1262495 L88.51128,0.585533543 C89.4348,-0.229497305 90.83672,-0.189210609 91.71032,0.678502841 C92.58392,1.54621629 92.62552,2.93972277 91.80496,3.85598686 L83.08248,13.5960703 C83.08456,13.5981363 83.08664,13.5991693 83.08872,13.6012353 L82.99512,13.6931716 Z M45.47504,46.6063692 C44.23848,45.3781414 42.23128,45.3781414 40.99472,46.6063692 C39.75816,47.8335639 39.7592,49.8272388 40.99576,51.0564996 C42.23232,52.2836943 44.23848,52.2836943 45.47504,51.0564996 C46.7116,49.8272388 46.7116,47.8356299 45.47504,46.6063692 Z" id="Shape"></path>
                </g>
            </g>
        </g>
    </g>
</svg>