<svg width="84" height="115" viewBox="0 0 84 115" version="1.1" xmlns="http://www.w3.org/2000/svg" xmlns:xlink="http://www.w3.org/1999/xlink">
    <title>icon wind</title>
    <desc>Created using Figma</desc>
    <g id="Canvas" transform="translate(3171 2262)">
        <g id="icon wind">
            <g id="Shape" opacity="0.205616">
                <use xlink:href="#path0_fill" transform="translate(-3171 -2262)" fill="#FFFFFF" />
            </g>
        </g>
    </g>
    <defs>
        <path id="path0_fill" d="M 65.611 109.817L 65.611 55.6305C 67.144 57.6948 69.4465 60.303 72.1829 62.9939C 77.7468 68.4656 82.9774 72.1939 83.8708 71.3176C 84.7595 70.4413 80.9684 65.2951 75.4045 59.8234C 72.3606 56.83 69.4208 54.3655 67.2329 52.8832C 67.4071 52.4543 67.5089 51.9897 67.5089 51.4986C 67.5089 51.0076 67.4071 50.5418 67.2317 50.1129C 69.4208 48.6317 72.3618 46.1684 75.4045 43.175C 80.9684 37.701 84.7595 32.5537 83.8708 31.6797C 82.9774 30.8011 77.7468 34.5293 72.177 40.0033C 69.132 42.9979 66.6271 45.889 65.121 48.0417C 64.686 47.8704 64.2147 47.7703 63.7166 47.7703C 63.2184 47.7703 62.7448 47.8704 62.3098 48.0417C 60.8048 45.889 58.2988 42.9979 55.2549 40.0022C 49.6863 34.5282 44.4522 30.8022 43.5635 31.6762C 42.6724 32.5548 46.4635 37.6999 52.0274 43.1738C 55.0725 46.1684 58.0123 48.6328 60.2014 50.114C 60.0272 50.543 59.9254 51.0076 59.9254 51.4986C 59.9254 51.9885 60.0272 52.4531 60.2002 52.8809C 58.0112 54.3621 55.0713 56.8277 52.0274 59.8234C 46.4635 65.2951 42.6712 70.4413 43.5635 71.3176C 44.451 72.1939 49.6863 68.4656 55.2503 62.9939C 57.9866 60.3041 60.2891 57.6959 61.821 55.6317L 61.821 109.817L 30.8348 109.817L 30.8348 33.4771C 32.9654 36.3463 36.166 39.9723 39.9676 43.712C 47.7031 51.3204 54.9766 56.5034 56.2173 55.2832C 57.4534 54.0677 52.1876 46.9113 44.451 39.303C 40.2167 35.1411 36.1286 31.7153 33.0847 29.6557C 33.3279 29.06 33.4694 28.4125 33.4694 27.7317C 33.4694 27.0498 33.3279 26.4024 33.0835 25.8055C 36.1274 23.7459 40.2144 20.3201 44.4452 16.1582C 52.1865 8.55104 57.4522 1.39349 56.2162 0.177949C 54.9754 -1.04219 47.7031 4.14197 39.9618 11.7492C 35.7298 15.9121 32.2462 19.9314 30.1519 22.9248C 29.5461 22.6867 28.8901 22.5476 28.199 22.5476C 27.5056 22.5476 26.8484 22.6867 26.2426 22.9259C 24.1483 19.9325 20.6635 15.9133 16.4327 11.7515C 8.69492 4.14427 1.41787 -1.03644 0.181838 0.177949C -1.05537 1.39694 4.21152 8.55219 11.9528 16.1594C 16.1836 20.3212 20.2706 23.7482 23.3133 25.8078C 23.0701 26.4035 22.9286 27.0509 22.9286 27.7329C 22.9286 28.4125 23.0701 29.0588 23.3122 29.6534C 20.2683 31.713 16.1801 35.14 11.947 39.303C 4.21152 46.9102 -1.05887 54.0654 0.180669 55.2832C 1.4167 56.4999 8.69375 51.3204 16.4304 43.712C 20.232 39.9723 23.4314 36.3463 25.5632 33.4771L 25.5632 109.817L 0.00175384 109.817L 0.00175384 115L 83.9994 115L 83.9994 109.817L 65.611 109.817Z" />
    </defs>
</svg>