<svg width="192" height="75" viewBox="0 0 192 75" version="1.1" xmlns="http://www.w3.org/2000/svg" xmlns:xlink="http://www.w3.org/1999/xlink">
    <title>Origin Logo</title>
    <desc>Created using Figma</desc>
    <g id="Canvas" transform="translate(9242 2775)">
        <g id="Origin Logo">
            <g id="Origin" opacity="0.13587">
                <use xlink:href="#path0_fill" transform="translate(-9178.21 -2756.39)" fill="#FFFFFF" />
            </g>
            <g id="Path" opacity="0.519475">
                <use xlink:href="#path1_fill" transform="translate(-9241.67 -2774.76)" fill="#FFFFFF" />
            </g>
            <g id="Oval">
                <use xlink:href="#path2_fill" transform="translate(-9220.75 -2753.36)" fill="#BA77FF" />
            </g>
        </g>
    </g>
    <defs>
        <path id="path0_fill" fill-rule="evenodd" d="M 18.5206 5.9743C 16.7282 5.9743 15.0355 6.31035 13.4423 6.98247C 11.8492 7.65459 10.4676 8.57563 9.29762 9.74562C 8.12763 10.9156 7.20659 12.2972 6.53447 13.8903C 5.86235 15.4835 5.5263 17.1762 5.5263 18.9686L 5.5263 37.4891L 0 37.4891L 0 18.9686C 0 16.4294 0.485413 14.0397 1.45625 11.7993C 2.42709 9.55891 3.75887 7.59236 5.45162 5.89962C 7.14437 4.20687 9.11091 2.87509 11.3513 1.90425C 13.5917 0.933411 15.9814 0.447998 18.5206 0.447998L 18.5206 5.9743ZM 29.8715 37.6387L 24.2705 37.6387L 24.2705 0.298828L 29.8715 0.298828L 29.8715 37.6387ZM 72.8872 37.4146C 72.8872 39.9537 72.4018 42.3559 71.431 44.6212C 70.4601 46.8865 69.1284 48.8655 67.4356 50.5582C 65.7429 52.251 63.7639 53.5827 61.4986 54.5536C 59.2333 55.5244 56.8062 56.0098 54.2173 56.0098C 51.6782 56.0098 49.3134 55.736 47.1227 55.1883C 44.9321 54.6407 43.0278 53.869 41.4097 52.8733C 39.7917 51.8775 38.4724 50.6951 37.4517 49.326C 36.4311 47.9569 35.8212 46.4508 35.6221 44.8079L 42.3432 44.8079C 42.642 45.6045 43.0402 46.3512 43.5381 47.0483C 44.036 47.7453 44.733 48.3551 45.6292 48.8779C 46.5253 49.4007 47.6579 49.799 49.0271 50.0728C 50.3962 50.3466 52.1263 50.4586 54.2173 50.4088C 56.0594 50.4088 57.777 50.0728 59.3702 49.4007C 60.9634 48.7285 62.3449 47.8075 63.5149 46.6375C 64.6849 45.4675 65.606 44.086 66.2781 42.4928C 66.9502 40.8996 67.2863 39.2069 67.2863 37.4146L 67.2863 18.7447C 67.2863 16.9523 66.9502 15.2596 66.2781 13.6664C 65.606 12.0733 64.6849 10.6793 63.5149 9.48438C 62.3449 8.28949 60.9634 7.35601 59.3702 6.68389C 57.777 6.01177 56.0594 5.67571 54.2173 5.67571C 52.4748 5.67571 50.8194 6.01177 49.2511 6.68389C 47.6828 7.35601 46.3013 8.28949 45.1064 9.48438C 43.9115 10.6793 42.9656 12.0733 42.2686 13.6664C 41.5715 15.2596 41.223 16.9523 41.223 18.7447C 41.223 20.537 41.5715 22.2297 42.2686 23.8229C 42.9656 25.416 43.9115 26.8101 45.1064 28.0049C 46.3013 29.1998 47.6828 30.1333 49.2511 30.8054C 50.8194 31.4775 52.4748 31.8136 54.2173 31.8136L 54.2173 37.4146C 51.6782 37.4146 49.276 36.9292 47.0107 35.9583C 44.7454 34.9875 42.7664 33.6682 41.0737 32.0003C 39.3809 30.3324 38.0492 28.3659 37.0783 26.1006C 36.1075 23.8353 35.6221 21.3834 35.6221 18.7447C 35.6221 16.2055 36.1075 13.8034 37.0783 11.5381C 38.0492 9.27277 39.3809 7.29378 41.0737 5.60103C 42.7664 3.90828 44.7454 2.57651 47.0107 1.60567C 49.276 0.634827 51.6782 0.149414 54.2173 0.149414C 56.8062 0.149414 59.2333 0.634827 61.4986 1.60567C 63.7639 2.57651 65.7429 3.90828 67.4356 5.60103C 69.1284 7.29378 70.4601 9.27277 71.431 11.5381C 72.4018 13.8034 72.8872 16.2055 72.8872 18.7447L 72.8872 37.4146ZM 84.0893 37.6387L 78.4883 37.6387L 78.4883 0.298828L 84.0893 0.298828L 84.0893 37.6387ZM 89.6904 18.8193C 89.6904 16.2304 90.1883 13.8033 91.184 11.538C 92.1798 9.27272 93.524 7.28128 95.2167 5.56364C 96.9095 3.846 98.8885 2.48933 101.154 1.49359C 103.419 0.49786 105.846 0 108.435 0C 111.024 0 113.451 0.49786 115.716 1.49359C 117.982 2.48933 119.973 3.846 121.691 5.56364C 123.408 7.28128 124.765 9.27272 125.761 11.538C 126.756 13.8033 127.254 16.2304 127.254 18.8193L 127.254 37.5639L 121.579 37.5639L 121.579 18.8193C 121.579 17.027 121.243 15.3342 120.57 13.7411C 119.898 12.1479 118.965 10.7539 117.77 9.559C 116.575 8.36412 115.181 7.41819 113.588 6.72117C 111.995 6.02416 110.277 5.67566 108.435 5.67566C 106.593 5.67566 104.875 6.02416 103.282 6.72117C 101.689 7.41819 100.295 8.36412 99.1001 9.559C 97.9052 10.7539 96.9717 12.1479 96.2996 13.7411C 95.6275 15.3342 95.2914 17.027 95.2914 18.8193L 89.6904 18.8193Z" />
        <path id="path1_fill" fill-rule="evenodd" d="M 27.9302 0C 31.8136 0 35.4479 0.721896 38.8334 2.16571C 42.2189 3.60953 45.1688 5.58852 47.683 8.10275C 50.1972 10.617 52.1762 13.5668 53.62 16.9523C 55.0638 20.3378 55.7857 23.9722 55.7857 27.8555C 55.7857 31.7389 55.0638 35.3733 53.62 38.7588C 52.1762 42.1443 50.1972 45.0941 47.683 47.6083C 45.1688 50.1225 42.2189 52.114 38.8334 53.5827C 35.4479 55.0514 31.8136 55.7857 27.9302 55.7857L 27.9302 50.1847C 30.9672 50.1847 33.8423 49.5998 36.5557 48.4298C 39.2691 47.2598 41.6464 45.6666 43.6876 43.6503C 45.7289 41.6339 47.3345 39.2691 48.5045 36.5557C 49.6744 33.8423 50.2594 30.9423 50.2594 27.8555C 50.2594 24.719 49.6744 21.794 48.5045 19.0807C 47.3345 16.3673 45.7289 14.0025 43.6876 11.9861C 41.6464 9.96973 39.2691 8.38902 36.5557 7.24393C 33.8423 6.09884 30.9672 5.5263 27.9302 5.5263C 24.7936 5.5263 21.8563 6.09884 19.118 7.24393C 16.3797 8.38902 13.99 9.96973 11.9487 11.9861C 9.90749 14.0025 8.3019 16.3673 7.13191 19.0807C 5.96192 21.794 5.37694 24.719 5.37694 27.8555L 0 27.8555C 0 23.9722 0.734343 20.3378 2.20305 16.9523C 3.67176 13.5668 5.6632 10.617 8.17743 8.10275C 10.6917 5.58852 13.6415 3.60953 17.027 2.16571C 20.4125 0.721896 24.0468 0 27.9302 0Z" />
        <path id="path2_fill" fill-rule="evenodd" d="M 7.26053 14.5211C 11.2704 14.5211 14.5211 11.2704 14.5211 7.26053C 14.5211 3.25065 11.2704 0 7.26053 0C 3.25065 0 0 3.25065 0 7.26053C 0 11.2704 3.25065 14.5211 7.26053 14.5211Z" />
    </defs>
</svg>