<svg width="13" height="13" viewBox="0 0 13 13" version="1.1" xmlns="http://www.w3.org/2000/svg" xmlns:xlink="http://www.w3.org/1999/xlink">
    <title>Shape</title>
    <desc>Created using Figma</desc>
    <g id="Canvas" transform="translate(7874 1920)">
        <g id="Shape">
            <use xlink:href="#path0_fill" transform="translate(-7874 -1920)" fill="#BA77FF" />
        </g>
    </g>
    <defs>
        <path id="path0_fill" fill-rule="evenodd" d="M 13 10.5625L 13 2.4375C 13 1.76611 12.7617 1.19189 12.2847 0.71521C 11.8081 0.238403 11.2339 0 10.5625 0L 2.4375 0C 1.76611 0 1.19189 0.238403 0.715332 0.71521C 0.238281 1.19189 0 1.76611 0 2.4375L 0 10.5625C 0 11.2339 0.238281 11.8081 0.715332 12.2848C 1.19189 12.7616 1.76611 13 2.4375 13L 10.5625 13C 11.2339 13 11.8081 12.7616 12.2847 12.2848C 12.7617 11.8081 13 11.2339 13 10.5625ZM 10.8335 2.70825L 10.8335 6.77075C 10.8335 7.00781 10.7231 7.17419 10.5034 7.27014C 10.4297 7.29834 10.3594 7.3125 10.2915 7.3125C 10.1392 7.3125 10.0122 7.25891 9.91064 7.15161L 8.69189 5.93286L 4.17236 10.4524C 4.06543 10.5597 3.93848 10.6133 3.7915 10.6133C 3.64502 10.6133 3.51807 10.5597 3.41064 10.4524L 2.54736 9.58911C 2.44043 9.48193 2.38672 9.35498 2.38672 9.20825C 2.38672 9.06165 2.44043 8.93469 2.54736 8.82739L 7.06689 4.30786L 5.84814 3.08911C 5.67334 2.92554 5.63379 2.72803 5.72998 2.4967C 5.82568 2.27661 5.99219 2.16663 6.229 2.16663L 10.2915 2.16663C 10.4385 2.16663 10.5654 2.22021 10.6724 2.32739C 10.7798 2.43469 10.8335 2.56165 10.8335 2.70825Z" />
    </defs>
</svg>