<svg width="12" height="12" viewBox="0 0 12 12" version="1.1" xmlns="http://www.w3.org/2000/svg" xmlns:xlink="http://www.w3.org/1999/xlink">
    <title>+</title>
    <desc>Created using Figma</desc>
    <g id="Canvas" transform="translate(-6911 2713)">
        <g id="+">
            <use xlink:href="#path0_fill" transform="translate(6911.5 -2712.86)" fill="#BA77FF" />
        </g>
    </g>
    <defs>
        <path id="path0_fill" fill-rule="evenodd" d="M 6.09294 4.84082L 10.5502 4.84082C 10.8501 4.84082 11 4.99188 11 5.29401L 11 5.5824C 11 5.88452 10.8501 6.03558 10.5502 6.03558L 6.09294 6.03558L 6.09294 10.5468C 6.09294 10.8489 5.943 11 5.64312 11L 5.33643 11C 5.03655 11 4.88662 10.8489 4.88662 10.5468L 4.88662 6.03558L 0.449814 6.03558C 0.149937 6.03558 0 5.88452 0 5.5824L 0 5.29401C 0 4.99188 0.149937 4.84082 0.449814 4.84082L 4.88662 4.84082L 4.88662 0.453184C 4.88662 0.15106 5.03655 0 5.33643 0L 5.64312 0C 5.943 0 6.09294 0.15106 6.09294 0.453184L 6.09294 4.84082Z" />
    </defs>
</svg>