<svg width="28" height="23" viewBox="0 0 28 23" fill="none" xmlns="http://www.w3.org/2000/svg">
<path d="M14 14.4314C13.7419 14.4314 13.5333 14.2294 13.5333 13.9804V5.41185C13.5333 5.16291 13.7419 4.96087 14 4.96087C14.2581 4.96087 14.4667 5.16291 14.4667 5.41185V13.9804C14.4667 14.2294 14.2581 14.4314 14 14.4314Z" fill="#999999"/>
<path d="M22.8661 20.2941C22.7756 20.2941 22.6837 20.2684 22.6034 20.2152L14.0075 14.5315L5.87353 20.2084C5.66354 20.3541 5.37234 20.3086 5.22207 20.107C5.07134 19.9049 5.11801 19.6231 5.32707 19.4774L13.993 13.4289L23.1303 19.4706C23.3431 19.6113 23.3972 19.8919 23.2521 20.0975C23.1615 20.2256 23.015 20.2941 22.8661 20.2941Z" fill="#999999"/>
<path d="M14 2.255C13.8805 2.255 13.7611 2.21081 13.6701 2.12287L12.2701 0.769932C12.0876 0.5936 12.0876 0.308582 12.2701 0.132249C12.4525 -0.0440831 12.7475 -0.0440831 12.9299 0.132249L14.3299 1.48518C14.5124 1.66152 14.5124 1.94653 14.3299 2.12287C14.2389 2.21081 14.1195 2.255 14 2.255Z" fill="#999999"/>
<path d="M14 2.255C13.8805 2.255 13.7611 2.21081 13.6701 2.12287C13.4876 1.94653 13.4876 1.66152 13.6701 1.48518L15.0701 0.132249C15.2525 -0.0440831 15.5475 -0.0440831 15.7299 0.132249C15.9124 0.308582 15.9124 0.5936 15.7299 0.769932L14.3299 2.12287C14.2389 2.21081 14.1195 2.255 14 2.255Z" fill="#999999"/>
<path d="M14 3.60794C13.7419 3.60794 13.5333 3.4059 13.5333 3.15696V1.80403C13.5333 1.55509 13.7419 1.35305 14 1.35305C14.2581 1.35305 14.4667 1.55509 14.4667 1.80403V3.15696C14.4667 3.4059 14.2581 3.60794 14 3.60794Z" fill="#999999"/>
<path d="M27.5332 23C27.4138 23 27.2943 22.9558 27.2033 22.8679L24.4033 20.162C24.2208 19.9857 24.2208 19.7006 24.4033 19.5243C24.5858 19.348 24.8807 19.348 25.0632 19.5243L27.8632 22.2302C28.0456 22.4065 28.0456 22.6915 27.8632 22.8679C27.7722 22.9558 27.6527 23 27.5332 23Z" fill="#999999"/>
<path d="M24.7332 23C24.6138 23 24.4943 22.9558 24.4033 22.8679C24.2208 22.6915 24.2208 22.4065 24.4033 22.2302L27.2033 19.5243C27.3858 19.348 27.6807 19.348 27.8632 19.5243C28.0456 19.7006 28.0456 19.9857 27.8632 20.162L25.0632 22.8679C24.9722 22.9558 24.8527 23 24.7332 23Z" fill="#999999"/>
<path d="M3.26676 20.2941H0.466779C0.208715 20.2941 0.000116664 20.0921 0.000116664 19.8432C0.000116664 19.5942 0.208715 19.3922 0.466779 19.3922H3.26676C3.52482 19.3922 3.73342 19.5942 3.73342 19.8432C3.73342 20.0921 3.52482 20.2941 3.26676 20.2941Z" fill="#999999"/>
<path d="M0.466779 23C0.347314 23 0.227848 22.9558 0.136849 22.8679C-0.0456163 22.6915 -0.0456163 22.4065 0.136849 22.2302L2.93683 19.5243C3.11929 19.348 3.41422 19.348 3.59669 19.5243C3.77915 19.7006 3.77915 19.9857 3.59669 20.162L0.79671 22.8679C0.705711 22.9558 0.586245 23 0.466779 23Z" fill="#999999"/>
<path d="M3.26676 23H0.466779C0.208715 23 0.000116664 22.798 0.000116664 22.549C0.000116664 22.3001 0.208715 22.098 0.466779 22.098H3.26676C3.52482 22.098 3.73342 22.3001 3.73342 22.549C3.73342 22.798 3.52482 23 3.26676 23Z" fill="#999999"/>
</svg>
