<svg width="301" height="51" viewBox="0 0 301 51" fill="none" xmlns="http://www.w3.org/2000/svg">
<g clip-path="url(#clip0)">
<path d="M68.4128 1.968H63V0H76V1.968H70.5872V18H68.4128V1.968Z" fill="black"/>
<path d="M76 0H78.2058V7.48799H86.8177V0H89V18H86.8177V9.48H78.2058V18H76V0Z" fill="black"/>
<path d="M95 13.128V0H107V1.968H97.673V7.48799H106.09V9.48H97.673V13.32C97.673 15.192 98.782 16.032 100.545 16.032H107V18H100.773C96.9906 18 95 16.488 95 13.128Z" fill="black"/>
<path d="M116 0H119V18H116V0Z" fill="black"/>
<path d="M123 0H124.434L133.849 13.32V0H136V18H134.566L125.174 4.67999V18H123V0Z" fill="black"/>
<path d="M145.413 1.968H140V0H153V1.968H147.587V18H145.413V1.968Z" fill="black"/>
<path d="M154 13.128V0H166V1.968H156.673V7.48799H165.09V9.48H156.673V13.32C156.673 15.192 157.782 16.032 159.545 16.032H166V18H159.773C155.991 18 154 16.488 154 13.128Z" fill="black"/>
<path d="M169 0H175.109C179.047 0 180.814 1.68 180.814 5.44799C181.041 7.70529 179.627 9.82093 177.381 10.584C179.455 12.6433 181.032 15.1088 182 17.808V18H179.551C178.608 15.4698 177.091 13.1675 175.109 11.256H171.348V18H169V0ZM174.503 9.28798C175.606 9.42496 176.712 9.06174 177.491 8.30702C178.27 7.5523 178.631 6.49367 178.466 5.44799C178.466 2.80799 177.482 1.96799 174.907 1.96799H171.348V9.28798H174.503Z" fill="black"/>
<path d="M186 0H187.434L196.849 13.32V0H199V18H197.566L188.174 4.67999V18H186V0Z" fill="black"/>
<path d="M203 17.808C203.717 14.616 204.232 12.84 204.926 10.32C205.923 6.79182 207.151 3.34329 208.6 0H211.4C212.869 3.33433 214.097 6.78445 215.074 10.32C215.79 12.84 216.306 14.616 217 17.808V18H214.917C214.514 16.2 214.2 14.904 213.864 13.584H206.136C205.8 14.904 205.509 16.2 205.106 18H203V17.808ZM206.674 11.616H213.326C213.214 11.232 213.125 10.776 212.99 10.32C212.238 7.41308 211.241 4.58544 210.011 1.872C208.781 4.58544 207.784 7.41307 207.032 10.32C206.898 10.776 206.763 11.232 206.674 11.616Z" fill="black"/>
<path d="M222.413 1.968H217V0H230V1.968H224.587V18H222.413V1.968Z" fill="black"/>
<path d="M231 0H234V18H231V0Z" fill="black"/>
<path d="M238 10.8094V9.1906C238 3.47259 240.442 0 244.989 0C249.536 0 252 3.26371 252 9.1906V10.8094C252 16.5274 249.536 20 244.989 20C240.442 20 238 16.7363 238 10.8094ZM249.894 10.8094V9.1906C249.894 4.28199 248.237 2.14099 244.989 2.14099C241.763 2.14099 240.083 4.28199 240.083 9.1906V10.8094C240.083 15.718 241.763 17.859 244.989 17.859C248.237 17.859 249.894 15.718 249.894 10.8094Z" fill="black"/>
<path d="M257 0H258.434L267.849 13.32V0H270V18H268.566L259.174 4.67999V18H257V0Z" fill="black"/>
<path d="M272 17.808C272.717 14.616 273.232 12.84 273.926 10.32C274.923 6.79183 276.151 3.34329 277.6 0H280.4C281.869 3.33432 283.097 6.78444 284.074 10.32C284.79 12.84 285.306 14.616 286 17.808V18H283.917C283.514 16.2 283.2 14.904 282.864 13.584H275.136C274.8 14.904 274.509 16.2 274.106 18H272V17.808ZM275.674 11.616H282.326C282.214 11.232 282.125 10.776 281.99 10.32C281.238 7.41307 280.241 4.58543 279.011 1.872C277.781 4.58544 276.784 7.41308 276.032 10.32C275.898 10.776 275.763 11.232 275.674 11.616Z" fill="black"/>
<path d="M291.037 13.102V0H293.343V13.2937C293.343 15.162 294.3 16.0003 295.822 16.0003H301V17.9644H296.018C294.651 18.1363 293.279 17.6796 292.303 16.7279C291.328 15.7761 290.86 14.4369 291.037 13.102Z" fill="black"/>
<path d="M63 25H70.9884C76.1379 25 78.4486 27.4267 78.4486 32.8693C78.7455 36.1299 76.8962 39.1858 73.9593 40.288C76.6725 43.2626 78.7342 46.8239 80 50.7227V51H76.798C75.5642 47.3452 73.5809 44.0198 70.9884 41.2587H66.0699V51H63V25ZM70.1961 38.416C74.0583 38.416 75.3786 36.0933 75.3786 32.8693C75.3786 29.056 74.0913 27.8427 70.7243 27.8427H66.0699V38.416H70.1961Z" fill="black"/>
<path d="M84 43.9627V25H97V27.8427H86.8958V35.816H96.0143V38.6933H86.8958V44.24C86.8958 46.944 88.0972 48.1573 90.0071 48.1573H97V51H90.2536C86.1564 51 84 48.8161 84 43.9627Z" fill="black"/>
<path d="M101 39.5953V36.4047C101 28.9713 105.746 25 113.17 25C115.172 25.0098 117.153 25.4134 119 26.188V31.8903H116.085V28.1906C114.955 27.9033 113.793 27.7663 112.627 27.7832C107.881 27.7832 104.153 30.1932 104.153 36.4047V39.5953C104.153 45.1619 107.068 48.2167 112.119 48.2167H113.712C115.43 48.143 117.125 47.7876 118.729 47.1645H119V49.812C117.326 50.5328 115.533 50.9357 113.712 51H112.119C104.424 51 101 46.2141 101 39.5953Z" fill="black"/>
<path d="M131 49.9478V47.1645H131.269C133.319 47.7518 135.427 48.1047 137.555 48.2167H138.597C141.756 48.2167 143.874 47.0287 143.874 43.8381C143.874 41.0548 142.462 40.2063 140.176 39.5953L136.781 38.6788C134.361 38.0001 131.269 36.4047 131.269 31.8903C131.269 27.7832 134.395 25 139.403 25H140.177C142.148 25.0281 144.101 25.3836 145.958 26.0522V28.7337H145.689C143.9 28.1773 142.047 27.8578 140.177 27.7833H139.403C136.244 27.7833 134.395 28.9713 134.395 31.8904C134.395 34.5379 136.076 35.2507 138.092 35.8616L141.353 36.812C143.941 37.5588 147 38.9164 147 43.8381C147 48.2167 143.874 51 138.597 51H137.555C135.336 50.9174 133.135 50.5641 131 49.9478Z" fill="black"/>
<path d="M157.327 27.8427H149V25H169V27.8427H160.673V51H157.327V27.8427Z" fill="black"/>
<path d="M165 50.7226C166.075 46.1119 166.848 43.5466 167.89 39.9066C169.385 34.8104 171.226 29.8292 173.4 25H177.6C179.803 29.8163 181.646 34.7998 183.11 39.9067C184.186 43.5467 184.958 46.112 186 50.7227V51H182.875C182.27 48.4 181.8 46.528 181.296 44.6214H169.704C169.2 46.528 168.763 48.4 168.158 51H165V50.7226ZM170.51 41.7786H180.49C180.322 41.2239 180.187 40.5653 179.986 39.9066C178.858 35.7077 177.362 31.6233 175.517 27.7039C173.672 31.6233 172.176 35.7077 171.048 39.9066C170.846 40.5652 170.645 41.2239 170.51 41.7786Z" fill="black"/>
<path d="M190 25H192.206L206.69 44.24V25H210V51H207.794L193.345 31.76V51H190V25Z" fill="black"/>
<path d="M217 25H224.213C231.588 25 235 28.64 235 35.816V39.6293C235 46.3893 232.108 51 224.733 51H217V25ZM224.733 48.1573C229.931 48.1573 231.978 45.3147 231.978 39.6294V35.816C231.978 30.1307 229.314 27.8427 224.213 27.8427H220.054V48.1573H224.733Z" fill="black"/>
<path d="M236 50.7226C237.075 46.1119 237.848 43.5466 238.89 39.9066C240.385 34.8104 242.226 29.8292 244.4 25H248.6C250.803 29.8163 252.646 34.7998 254.11 39.9067C255.186 43.5467 255.958 46.112 257 50.7227V51H253.875C253.27 48.4 252.8 46.528 252.296 44.6214H240.704C240.2 46.528 239.763 48.4 239.158 51H236V50.7226ZM241.51 41.7786H251.49C251.322 41.2239 251.187 40.5653 250.986 39.9066C249.858 35.7077 248.362 31.6233 246.517 27.7039C244.672 31.6233 243.176 35.7077 242.048 39.9066C241.847 40.5652 241.645 41.2239 241.51 41.7786Z" fill="black"/>
<path d="M263 25H270.988C276.138 25 278.449 27.4267 278.449 32.8693C278.745 36.1299 276.896 39.1858 273.959 40.288C276.673 43.2626 278.734 46.8239 280 50.7227V51H276.798C275.564 47.3453 273.581 44.0198 270.988 41.2587H266.07V51H263V25ZM270.196 38.416C274.058 38.416 275.379 36.0933 275.379 32.8693C275.379 29.056 274.091 27.8427 270.724 27.8427H266.07V38.416H270.196Z" fill="black"/>
<path d="M290.213 25C297.588 25 301 28.64 301 35.816V39.6293C301 46.3893 298.108 51 290.733 51H283V25H290.213ZM290.213 27.8427H286.054V48.1573H290.733C295.931 48.1573 297.978 45.3147 297.978 39.6294V35.816C297.978 30.1307 295.314 27.8427 290.213 27.8427Z" fill="black"/>
<path d="M24.519 15.8088C23.5916 16.6386 22.4121 17.1291 21.172 17.2008C22.7328 18.7835 23.866 20.7397 24.4646 22.8846C25.0618 22.6903 25.6427 22.4484 26.2016 22.1612C26.6181 21.9517 27.0222 21.7183 27.4121 21.4622C29.8168 19.8422 31.541 17.3873 32.254 14.5687C32.7523 12.1837 34.7427 10.4051 37.1591 10.1856C39.5755 9.96615 41.8513 11.3572 42.7674 13.6137C43.6836 15.8702 43.0253 18.463 41.1451 20.0032C43.3297 20.3675 45.3869 21.2814 47.1249 22.6597C50.3293 18.2502 50.0997 12.2077 46.57 8.05629C43.0403 3.90488 37.1343 2.73102 32.2964 5.21932C31.8787 5.42878 31.4744 5.66429 31.0859 5.92447C28.5963 7.60065 26.8382 10.1688 26.1713 13.1037C25.8895 14.1484 25.3112 15.0883 24.5069 15.8088" fill="#6595AB"/>
<path d="M30.6152 24.82C32.6553 26.4446 35.1803 27.3254 37.7795 27.3191C38.0904 27.3245 38.4013 27.3124 38.7109 27.2829H39.1168C41.4414 27.2786 43.513 28.7617 44.2759 30.9765C45.0388 33.1913 44.3253 35.6505 42.4988 37.1009C40.6723 38.5513 38.1349 38.6737 36.1795 37.4058C36.5027 39.5871 36.2768 41.8153 35.5228 43.8854C40.6187 45.5605 46.1884 43.49 48.9878 38.8799C51.7872 34.2698 51.0849 28.3245 47.2901 24.5068C46.9662 24.1832 46.6233 23.8795 46.2632 23.5975C44.2229 21.9733 41.6981 21.0925 39.0989 21.0984H38.2631C38.0961 21.1074 37.9287 21.1074 37.7616 21.0984C36.7932 21.1003 35.8422 20.8381 35.0093 20.3396C33.9638 19.7275 33.1492 18.783 32.6929 17.6538C31.6813 19.5984 30.2011 21.2551 28.3884 22.4714C28.749 22.9758 29.1482 23.451 29.5824 23.8926" fill="#6595AB"/>
<path d="M17.7599 37.7512C15.9289 38.6737 13.9087 39.1542 11.8602 39.1545H11.3316C11.3251 44.6328 15.0651 49.399 20.3709 50.674C25.6767 51.949 31.1601 49.3992 33.624 44.5113C33.8324 44.0964 34.019 43.6708 34.1829 43.2362C35.1871 40.4683 35.133 37.4246 34.031 34.6945C34.0143 34.6631 34.0001 34.6305 33.9885 34.5969C33.0664 32.3311 33.7217 29.7265 35.6047 28.1723C33.4118 27.8086 31.3477 26.8888 29.6078 25.5C29.2373 26.0129 28.9062 26.5534 28.6174 27.1168C27.7668 28.7823 27.3213 30.6264 27.3172 32.4981C27.3149 34.0299 27.6122 35.5473 28.1921 36.9641L28.2286 37.0618C29.1343 39.1531 28.6792 41.5876 27.0797 43.2066C25.4802 44.8255 23.0595 45.302 20.9697 44.4091C18.88 43.5162 17.5433 41.4344 17.5958 39.1545C17.5883 38.6815 17.6434 38.2096 17.7599 37.7512Z" fill="#6595AB"/>
<path d="M15.9604 13.7654C16.4066 14.7734 17.1438 15.6257 18.0777 16.2133C20.5754 17.7262 22.4083 20.1253 23.2093 22.93C23.507 23.9584 23.656 25.0239 23.6519 26.0943H23.1315C21.1174 26.0928 19.1308 26.561 17.33 27.4615C17.4474 27.0131 17.5077 26.5518 17.5095 26.0883C17.512 25.3382 17.3572 24.5959 17.0549 23.9091C16.6091 22.8923 15.8646 22.0345 14.9198 21.4493L14.848 21.4016C12.3951 19.879 10.5978 17.4996 9.80608 14.7267C9.51064 13.706 9.36163 12.6487 9.36348 11.5862C9.35966 6.56498 12.5989 2.11374 17.3838 0.565123C22.1687 -0.983495 27.4081 0.723637 30.3564 4.79192C28.5468 6.01073 27.0724 7.66323 26.0681 9.5981C24.9735 6.79404 21.8096 5.406 19.0001 6.49729C16.1906 7.58857 14.7985 10.7462 15.8904 13.5514C15.92 13.6274 15.9513 13.7027 15.9843 13.7774L15.9604 13.7654Z" fill="#6595AB"/>
<path d="M11.3577 37.917C10.903 37.899 10.4496 37.8566 9.99928 37.79C4.6902 36.9529 0.643255 32.5434 0.216117 27.1303C-0.211021 21.7173 3.09327 16.7153 8.20399 15.0385C8.79356 17.1822 9.91397 19.1387 11.4595 20.7233C8.53043 20.918 6.27839 23.4191 6.36213 26.3843C6.44587 29.3496 8.8354 31.7168 11.7706 31.7423C11.9501 31.7515 12.1298 31.7515 12.3092 31.7423C13.4162 31.6252 14.4607 31.1671 15.3014 30.4299C17.3997 28.6185 20.07 27.6253 22.8297 27.6298H23.2665C23.7214 27.6447 24.1751 27.6871 24.625 27.7568C25.2336 27.8551 25.8338 28.0006 26.4203 28.1923C25.8901 29.6508 25.6187 31.1924 25.6184 32.7462C25.6375 33.3996 25.7056 34.0506 25.8218 34.6936C24.9455 34.124 23.9254 33.8217 22.8835 33.8227C22.7041 33.8135 22.5244 33.8135 22.3449 33.8227C21.2107 33.9321 20.1401 34.4022 19.2869 35.1653C17.1968 36.9493 14.5484 37.9265 11.8125 37.9231H11.3757" fill="#6595AB"/>
<path d="M38.8848 36.6154C41.0587 36.6154 42.821 34.859 42.821 32.6923C42.821 30.5256 41.0587 28.7692 38.8848 28.7692C36.7109 28.7692 34.9487 30.5256 34.9487 32.6923C34.9487 34.859 36.7109 36.6154 38.8848 36.6154Z" fill="#2F4A52"/>
<path d="M37.5728 19.6154C39.7467 19.6154 41.5089 17.859 41.5089 15.6923C41.5089 13.5256 39.7467 11.7692 37.5728 11.7692C35.3989 11.7692 33.6366 13.5256 33.6366 15.6923C33.6366 17.859 35.3989 19.6154 37.5728 19.6154Z" fill="#2F4A52"/>
<path d="M23.1401 43.1538C25.314 43.1538 27.0763 41.3974 27.0763 39.2308C27.0763 37.0641 25.314 35.3077 23.1401 35.3077C20.9662 35.3077 19.2039 37.0641 19.2039 39.2308C19.2039 41.3974 20.9662 43.1538 23.1401 43.1538Z" fill="#2F4A52"/>
<path d="M11.9876 30.0769C14.1615 30.0769 15.9238 28.3205 15.9238 26.1539C15.9238 23.9872 14.1615 22.2308 11.9876 22.2308C9.81371 22.2308 8.05142 23.9872 8.05142 26.1539C8.05142 28.3205 9.81371 30.0769 11.9876 30.0769Z" fill="#2F4A52"/>
<path d="M25.0525 12.123C25.4297 9.80643 23.8513 7.62374 21.527 7.24782C19.2027 6.87189 17.0127 8.44508 16.6355 10.7616C16.2584 13.0782 17.8368 15.2609 20.1611 15.6368C22.4854 16.0127 24.6753 14.4395 25.0525 12.123Z" fill="#2F4A52"/>
</g>
<defs>
<clipPath id="clip0">
<rect width="301" height="51" fill="white"/>
</clipPath>
</defs>
</svg>
