<svg xmlns="http://www.w3.org/2000/svg" 
    xmlns:xlink="http://www.w3.org/1999/xlink" version="1.1" x="0px" y="0px" viewBox="0 0 68 85" enable-background="new 0 0 68 68" xml:space="preserve">
    <g fill="#555555">
        <path d="M64.5381012,63.7630844h-1.0462608V52.8499985c0-0.5599976-0.4400024-1-1-1H40.5818672c-0.5499878,0-1,0.4400024-1,1   v10.9130859h-8.1613789l-1.7386475-4.5730591c-0.1499634-0.3900146-0.5199585-0.6400146-0.9400024-0.6400146h-3.4299927v-9.4199829   H29.22188c0.5499878,0,1-0.4500122,1-1v-9.3000488c0-1.6356812-2.4542847-0.7749634-4.9100342-1V26.9300156h9.1900043   c0.5499878,0,1-0.4500122,1-1V21.120018H13.1318541v4.8099976c0,0.5499878,0.4400024,1,1,1h9.1799917v10.8999634   c-2.4207764,0.2227783-4.8900146-0.6436157-4.8900146,1v9.3000488c0,0.5499878,0.4500122,1,1,1h3.8900146v9.4199829h-4.3599854   c-0.4199829,0-0.789978,0.25-0.9400024,0.6400146l-1.7346191,4.5730591H3.0078301c-0.5527344,0-1,0.4477539-1,1s0.4472656,1,1,1   h13.9000854c0.0183105,0.0010376,0.0354614,0.006897,0.0539551,0.006897h13.7699585c0.0100098,0,0.0100098,0,0.0200195,0   c0.0120239,0,0.0220337-0.0064697,0.0339355-0.006897h9.7621479c0.0119019,0.0004272,0.0219116,0.006897,0.0339355,0.006897   h21.9099731c0.012207,0,0.0221558-0.0064697,0.0343018-0.006897h2.0119591c0.5527344,0,1-0.4477539,1-1   S65.0908356,63.7630844,64.5381012,63.7630844z M45.9718819,57.1700058c0.4199829-0.4199829,1-0.6799927,1.6399536-0.6799927   h7.8500366c1.2799683,0,2.3200073,1.039978,2.3200073,2.3200073c0,1.2799683-1.0400391,2.3099976-2.3200073,2.3099976h-7.8500366   c-1.2799683,0-2.3200073-1.0300293-2.3200073-2.3099976C45.2918282,58.1700058,45.5518379,57.5899887,45.9718819,57.1700058z"/>
        <path d="M33.3125191,58.64785l-0.0107422,0.0053711c-0.4912109,0.2460938-0.6875,0.8398438-0.4443359,1.3330078   c0.1728516,0.3530273,0.5292969,0.5571289,0.8994141,0.5571289c0.1474609,0,0.2978516-0.0327148,0.4384766-0.1005859   c1.0234375-0.4951172,2.1982422-0.4956055,3.2197266-0.0004883l0.8720703-1.800293   C36.7109566,57.8807602,34.9023628,57.8797836,33.3125191,58.64785z"/>
        <path d="M4.6250176,60.4461899c3.9319463,1.9051514,5.2347417-1.4318237,8.1835938-0.0053711l0.8789063-1.796875   c-1.578125-0.7636719-3.3896484-0.7641602-4.9677734,0.0014648c-3.1521611,1.5309448-5.6542974-2.5067139-6.6123052-0.5283203   C1.4404473,59.4970932,3.7483697,59.8638535,4.6250176,60.4461899z"/>
        <path d="M33.3134956,51.9486313c-1.0214844,0.4941406-2.196291,0.4956055-3.2099628,0.0053711l-0.0078125-0.0039063   l-0.875,1.7988281c0.7871094,0.3808594,1.6328125,0.5712891,2.4794922,0.5712891   c0.8486347,0,1.6992207-0.1918945,2.4951191-0.5761719c1.0234375-0.4951172,2.1982422-0.4956055,3.2197266-0.0004883   l0.8720703-1.800293C36.7109566,51.1820297,34.9033394,51.1805649,33.3134956,51.9486313z"/>
        <path d="M4.6250176,53.7474594c3.9665532,1.9194336,5.2154546-1.4418945,8.1953125,0   c0.7978516,0.3867188,1.6552734,0.5776367,2.5019531,0.5776367c0.8271475,0,1.6435537-0.1826172,2.3837881-0.5429688   l-0.3515625-0.9365234l-0.4394531-0.8984375c-1.0244131,0.496582-2.1992178,0.4960938-3.2275381-0.0014648   c-1.5791016-0.7651367-3.3886719-0.7641602-4.9677734,0.0009766c-3.2493901,1.578186-5.6211553-2.5751343-6.6123052-0.5283203   C1.4404473,52.7983627,3.7483697,53.165123,4.6250176,53.7474594z"/>
        <path d="M45.6308784,47.0501938c1.5771484,0.7631836,3.3857422,0.7626953,4.9746094-0.0053711   c2.9158936-1.4106445,4.2845459,1.8939819,8.2167969-0.0024414c1.0214844-0.4941406,2.1943359-0.4941406,3.2158203,0   l2.0644493,0.9980469c0.140625,0.0678711,0.2890625,0.0996094,0.4345703,0.0996094   c0.3720703,0,0.7285156-0.2080078,0.9013672-0.5649414c0.2402344-0.4970703,0.0322266-1.0952148-0.4648438-1.3354492   L62.9082222,45.2416c-1.5751953-0.7617188-3.3818359-0.7612305-4.9785156,0.0102539   c-2.9107056,1.40802-4.3029175-1.8916016-8.2060547-0.0024414c-1.0253906,0.4960938-2.1992188,0.4951172-3.2304688-0.0048828   c-1.5771484-0.7631836-3.3857422-0.7626953-4.9746094,0.0053711c-2.9020386,1.40802-4.3062744-1.8840332-8.2060547,0   l-0.0107422,0.0053711c-0.4912109,0.2460938-0.6875,0.8398438-0.4443359,1.3330078   c0.2421875,0.4931641,0.8447266,0.6948242,1.3378906,0.456543c1.0224609-0.4960938,2.1982422-0.4951172,3.2314453,0.0058594   C41.232502,48.8864365,42.7652779,45.6621323,45.6308784,47.0501938z"/>
        <path d="M4.6250176,47.0487289c3.9479375,1.9127808,5.2238164-1.4376221,8.1835938-0.0058594l0.8789063-1.796875   c-1.578125-0.7636719-3.3896484-0.7641602-4.9677734,0.0014648c-3.1740117,1.5355835-5.6508794-2.5131836-6.6123052-0.527832   C1.4404473,46.0996323,3.7483697,46.4663925,4.6250176,47.0487289z"/>
        <path d="M64.9736481,39.5404282l-2.0654259-0.9975586c-1.5751953-0.7612305-3.3828125-0.7617188-4.9775391,0.0102539   c-2.9075317,1.401062-4.3131104-1.8859863-8.2070313-0.0024414c-2.9168701,1.4111938-4.2996826-1.8886108-8.2050781,0.0004883   c-2.9283447,1.4152832-4.2749023-1.9003906-8.2060547,0l-0.0107422,0.0053711   c-0.4912109,0.2460938-0.6875,0.8398438-0.4443359,1.3330078c0.2421875,0.4936523,0.8447266,0.6943359,1.3378906,0.456543   c2.9037476-1.4033813,4.3135376,1.8811035,8.2050781,0c1.0244141-0.4956055,2.1982422-0.4946289,3.2304688,0.0048828   c3.8106689,1.8427734,5.3339233-1.3914795,8.2109375,0.0024414c3.8519897,1.8615112,5.3085938-1.4066772,8.1962891-0.0097656   l2.0644493,0.9975586c0.140625,0.0678711,0.2890625,0.0996094,0.4345703,0.0996094   c0.3720703,0,0.7285156-0.2080078,0.9013672-0.5649414C65.6787262,40.3788071,65.4707184,39.7806625,64.9736481,39.5404282z"/>
        <path d="M4.6250176,40.3495102c3.9125371,1.8933105,5.2615972-1.4200439,8.1835938-0.0053711l0.8789063-1.7963867   C9.741107,36.635582,8.4585752,39.982872,5.4961114,38.5497055c-1.0133057-0.3302002-2.7209473-1.9095459-3.3886719-0.5292969   C1.4404473,39.4004135,3.7483697,39.7671738,4.6250176,40.3495102z"/>
        <path d="M30.0957203,31.8534164l-0.875,1.7988281c3.8625507,1.8702393,5.2938251-1.4116821,8.2060566,0.0004883   c3.9749756,1.9186401,5.2147827-1.4499512,8.2041016-0.0004883c3.8184814,1.8465576,5.322937-1.3972168,8.2109375,0.0019531   c3.8519897,1.8627319,5.3051758-1.4083862,8.1962891-0.0097656c2.0574913,0.9595947,2.1032066,1.0976563,2.4990196,1.0976563   c1.0614014,0,1.387207-1.440979,0.4365234-1.9003906c-1.1277428-0.3642578-3.6849937-2.6107788-7.0439415-0.987793   c-2.9254761,1.4137573-4.2797241-1.902832-8.2060547-0.0024414c-2.9069824,1.4050293-4.3087158-1.8818359-8.2050781,0.0004883   c-2.8903198,1.4036865-4.3171997-1.8786621-8.2050781-0.0004883   C31.5963306,32.6830063,30.1957569,31.8759384,30.0957203,31.8534164z"/>
        <path d="M2.5722833,32.6571274c1.1594238,0.3734741,3.6784668,2.6130981,7.0195317,0.9921875   c1.7454834-0.8442993,3.3284912,0.0238037,3.2285156,0.0014648c2.2062988,1.0690308,6.3103628,0.4505615,5.4296865-1.3427734   c-0.2421875-0.4931641-0.8388672-0.6972656-1.3349609-0.4575195c-1.7452383,0.8441162-3.3275747-0.0248413-3.2275381-0.0024414   c-3.9360962-1.9023438-5.2423096,1.4296875-8.1914063,0.0029297L3.443377,30.8573227   c-0.5-0.2416992-1.0957031-0.0322266-1.3359375,0.4643555C1.8672051,31.8187485,2.075213,32.416893,2.5722833,32.6571274z"/>
        <path d="M32.1018257,14.0199814c-0.1799946-0.3099976-0.5099506-0.5-0.869997-0.5H17.3918629   c-0.3500366,0-0.6900024,0.1900024-0.8599854,0.5l-3.4000235,5.1000366h22.3699951L32.1018257,14.0199814z"/>
        <path d="M29.3718433,3.0799792c-0.0800171-0.4899902-0.4899902-0.8499756-0.9899902-0.8499756h-8.1300049   c-0.5,0-0.9199829,0.3599854-0.9899902,0.8499756l-0.4821167,3.055176H29.85396L29.3718433,3.0799792z"/>
        <polygon points="30.1718311,8.1399765 18.4618702,8.1399765 17.9318409,11.5199814 30.7018604,11.5199814  "/>
        <path d="M55.0818672,24.0799789c6.0299683,0,10.9299889-4.8999634,10.9299889-10.9199829   c0-6.0299678-4.9000206-10.9299927-10.9299889-10.9299927c-6.0200195,0-10.9199829,4.9000244-10.9199829,10.9299927   C44.1618843,19.1800156,49.0618477,24.0799789,55.0818672,24.0799789z M53.921833,6.349999l1.1600342,5.9700313   l3.6699829,0.1799927l-1.8499756,7.4599609l-2.4000244-4.2199707l-3.0899658-0.0900269L53.921833,6.349999z"/>
    </g>
</svg>