<?xml version="1.0" encoding="UTF-8"?>
<svg width="112px" height="87px" viewBox="0 0 142 110" version="1.1" xmlns="http://www.w3.org/2000/svg" xmlns:xlink="http://www.w3.org/1999/xlink">
    <!-- Generator: Sketch 49.2 (51160) - http://www.bohemiancoding.com/sketch -->
    <title>icon solarsolar</title>
    <desc>Created with Sketch.</desc>
    <defs></defs>
    <g id="Page-1" stroke="none" stroke-width="1" fill="none" fill-rule="evenodd">
        <g id="2_2_Assets_Detailed-View" transform="translate(-126.000000, -832.000000)" fill="#545454">
            <g id="content" transform="translate(94.000000, 559.000000)">
                <g id="icon-solarsolar" transform="translate(32.000000, 273.000000)">
                    <path d="M29.0107527,15.2777778 C36.1362007,15.2777778 42.2437276,21.3888889 42.2437276,29.0277778 C42.2437276,36.1574074 36.1362007,42.2685185 29.0107527,42.2685185 C21.3763441,42.2685185 15.2688172,36.1574074 15.2688172,29.0277778 C15.2688172,21.3888889 21.3763441,15.2777778 29.0107527,15.2777778 Z" id="Shape"></path>
                    <path d="M26.9749104,2.03703704 C26.9749104,-0.509259259 30.5376344,-0.509259259 30.5376344,2.03703704 L30.5376344,9.67592593 C30.5376344,12.2222222 26.9749104,12.2222222 26.9749104,9.67592593 L26.9749104,2.03703704 Z" id="Shape" fill-rule="nonzero"></path>
                    <path d="M8.65232975,11.2037037 C6.61648746,9.16666667 9.16129032,6.62037037 11.1971326,8.65740741 L16.7956989,14.2592593 C18.3225806,15.787037 15.7777778,18.3333333 14.2508961,16.8055556 L8.65232975,11.2037037 Z" id="Shape" fill-rule="nonzero"></path>
                    <path d="M2.03584229,30.5555556 C-0.508960573,30.5555556 -0.508960573,26.9907407 2.03584229,26.9907407 L9.6702509,26.9907407 C12.2150538,26.9907407 12.2150538,30.5555556 9.6702509,30.5555556 L2.03584229,30.5555556 Z" id="Shape" fill-rule="nonzero"></path>
                    <path d="M11.1971326,49.3981481 C9.16129032,50.9259259 6.61648746,48.3796296 8.65232975,46.3425926 L14.2508961,40.7407407 C15.7777778,39.212963 18.3225806,41.7592593 16.7956989,43.7962963 L11.1971326,49.3981481 Z" id="Shape" fill-rule="nonzero"></path>
                    <path d="M30.5376344,56.0185185 C30.5376344,58.0555556 26.9749104,58.0555556 26.9749104,56.0185185 L26.9749104,47.8703704 C26.9749104,45.3240741 30.5376344,45.3240741 30.5376344,47.8703704 L30.5376344,56.0185185 Z" id="Shape" fill-rule="nonzero"></path>
                    <path d="M49.3691756,46.3425926 C50.8960573,48.3796296 48.3512545,50.9259259 46.3154122,49.3981481 L40.7168459,43.7962963 C39.1899642,41.7592593 41.734767,39.212963 43.7706093,40.7407407 L49.3691756,46.3425926 Z" id="Shape" fill-rule="nonzero"></path>
                    <path d="M55.9856631,26.9907407 C58.0215054,26.9907407 58.0215054,30.5555556 55.9856631,30.5555556 L47.8422939,30.5555556 C45.297491,30.5555556 45.297491,26.9907407 47.8422939,26.9907407 L55.9856631,26.9907407 Z" id="Shape" fill-rule="nonzero"></path>
                    <path d="M46.3154122,8.65740741 C48.3512545,6.62037037 50.8960573,9.16666667 49.3691756,11.2037037 L43.7706093,16.8055556 C41.734767,18.3333333 39.1899642,15.787037 40.7168459,14.2592593 L46.3154122,8.65740741 Z" id="Shape" fill-rule="nonzero"></path>
                    <polygon id="Shape" points="34.1003584 110 0.508960573 110 20.8673835 90.1388889 49.8781362 90.1388889"></polygon>
                    <polygon id="Shape" points="68.7096774 110 37.6630824 110 52.9318996 90.1388889 78.8888889 90.1388889"></polygon>
                    <polygon id="Shape" points="104.845878 110 72.2724014 110 81.9426523 90.1388889 109.426523 90.1388889"></polygon>
                    <polygon id="Shape" points="141.491039 90.1388889 142 110 108.408602 110 111.971326 90.1388889"></polygon>
                    <polygon id="Shape" points="52.4229391 87.0833333 24.4301075 87.0833333 37.1541219 74.8611111 62.09319 74.8611111"></polygon>
                    <polygon id="Shape" points="80.4157706 87.0833333 54.9677419 87.0833333 64.6379928 74.8611111 87.0322581 74.8611111"></polygon>
                    <polygon id="Shape" points="109.935484 87.0833333 83.4695341 87.0833333 89.0681004 74.8611111 112.480287 74.8611111"></polygon>
                    <polygon id="Shape" points="140.982079 74.8611111 140.982079 87.0833333 112.989247 87.0833333 115.02509 74.8611111"></polygon>
                    <polygon id="Shape" points="117.569892 62.1296296 140.473118 62.1296296 140.473118 72.3148148 115.53405 72.3148148"></polygon>
                    <polygon id="Shape" points="95.1756272 62.1296296 115.53405 62.1296296 112.989247 72.3148148 90.5949821 72.3148148"></polygon>
                    <polygon id="Shape" points="74.3082437 62.1296296 93.6487455 62.1296296 88.0501792 72.3148148 66.6738351 72.3148148"></polygon>
                    <polygon id="Shape" points="50.3870968 62.1296296 72.2724014 62.1296296 64.1290323 72.3148148 39.6989247 72.3148148"></polygon>
                </g>
            </g>
        </g>
    </g>
</svg>