<?xml version="1.0" encoding="UTF-8"?>
<svg width="301px" height="51px" viewBox="0 0 301 51" version="1.1" xmlns="http://www.w3.org/2000/svg" xmlns:xlink="http://www.w3.org/1999/xlink">
    <title>Group 3</title>
    <g id="Page-1" stroke="none" stroke-width="1" fill="none" fill-rule="evenodd">
        <g id="Connect-existing-I-REC-Form-Filled" transform="translate(-961.000000, -257.000000)" fill-rule="nonzero">
            <g id="Group-3" transform="translate(961.000000, 257.000000)">
                <polygon id="Path" fill="#FFFFFF" points="68.4128025 1.96799572 63 1.96799572 63 0 76 0 76 1.96799572 70.5871975 1.96799572 70.5871975 18 68.4128025 18"></polygon>
                <polygon id="Path" fill="#FFFFFF" points="76 0 78.2057814 0 78.2057814 7.48799096 86.8176947 7.48799096 86.8176947 0 89 0 89 18 86.8176947 18 86.8176947 9.47999732 78.2057814 9.47999732 78.2057814 18 76 18"></polygon>
                <path d="M95,13.1279948 L95,0 L107,0 L107,1.96799572 L97.6729945,1.96799572 L97.6729945,7.48799096 L106.090048,7.48799096 L106.090048,9.47999732 L97.6729945,9.47999732 L97.6729945,13.3200056 C97.6729945,15.1920034 98.7819816,16.0319894 100.545024,16.0319894 L107,16.0319894 L107,18 L100.772508,18 C96.9905259,18 95,16.4879984 95,13.1279948 Z" id="Path" fill="#FFFFFF"></path>
                <polygon id="Path" fill="#FFFFFF" points="116 0 119 0 119 18 116 18"></polygon>
                <polygon id="Path" fill="#FFFFFF" points="123 0 124.434153 0 133.848749 13.3200056 133.848749 0 136 0 136 18 134.565804 18 125.174378 4.67999435 125.174378 18 123 18"></polygon>
                <polygon id="Path" fill="#FFFFFF" points="145.412803 1.96799572 140 1.96799572 140 0 153 0 153 1.96799572 147.587183 1.96799572 147.587183 18 145.412803 18"></polygon>
                <path d="M154,13.1279948 L154,0 L166,0 L166,1.96799572 L156.672994,1.96799572 L156.672994,7.48799096 L165.090048,7.48799096 L165.090048,9.47999732 L156.672994,9.47999732 L156.672994,13.3200056 C156.672994,15.1920034 157.781982,16.0319894 159.545006,16.0319894 L166,16.0319894 L166,18 L159.772508,18 C155.990508,18 154,16.4879984 154,13.1279948 Z" id="Path" fill="#FFFFFF"></path>
                <path d="M169,0 L175.108744,0 C179.046605,0 180.813597,1.6800004 180.813597,5.44798854 C181.040652,7.70528814 179.626509,9.82093096 177.380581,10.5839876 C179.455437,12.6433372 181.032006,15.1088275 182,17.8079893 L182,18 L179.551464,18 C178.607898,15.469785 177.09125,13.1675304 175.108744,11.2560027 L171.347583,11.2560027 L171.347583,18 L169,18 L169,0 Z M174.5029,9.28797883 C175.605653,9.42496207 176.712071,9.06173596 177.490987,8.30701945 C178.269902,7.55230295 178.630932,6.49367127 178.466015,5.44798854 C178.466015,2.80799429 177.481565,1.96799409 174.906791,1.96799409 L171.347583,1.96799409 L171.347583,9.28797883 L174.5029,9.28797883 Z" id="Shape" fill="#FFFFFF"></path>
                <polygon id="Path" fill="#FFFFFF" points="186 0 187.434169 0 196.848761 13.3200056 196.848761 0 199 0 199 18 197.565803 18 188.174381 4.67999435 188.174381 18 186 18"></polygon>
                <path d="M203,17.8079892 C203.716798,14.6159858 204.232005,12.839986 204.926407,10.3199982 C205.923196,6.79182392 207.150771,3.34328522 208.600011,0 L211.400003,0 C212.868939,3.33433294 214.09707,6.78444671 215.073593,10.3199982 C215.790391,12.8400009 216.305598,14.6160007 217,17.8079892 L217,18 L214.916793,18 C214.513581,16.1999896 214.199981,14.9039946 213.864012,13.5840038 L206.136002,13.5840038 C205.799992,14.9039946 205.508801,16.1999896 205.105617,18 L203,18 L203,17.8079892 Z M206.673604,11.6159932 L213.326396,11.6159932 C213.214402,11.2319864 213.12479,10.7759923 212.9904,10.3199982 C212.238349,7.4130779 211.241177,4.58543837 210.011198,1.87199774 C208.781212,4.58543519 207.78404,7.4130754 207.031996,10.3199982 C206.897592,10.7760072 206.763202,11.2320013 206.673604,11.6159932 Z" id="Shape" fill="#FFFFFF"></path>
                <polygon id="Path" fill="#FFFFFF" points="222.4128 1.96799572 217 1.96799572 217 0 230 0 230 1.96799572 224.587214 1.96799572 224.587214 18 222.4128 18"></polygon>
                <polygon id="Path" fill="#FFFFFF" points="231 0 234 0 234 18 231 18"></polygon>
                <path d="M238,10.8094023 L238,9.19059765 C238,3.47258726 240.441611,0 244.988809,0 C249.536007,0 252,3.26371446 252,9.19059765 L252,10.8094023 C252,16.5274127 249.536021,20 244.988809,20 C240.441597,20 238,16.7363017 238,10.8094023 Z M249.894399,10.8094023 L249.894399,9.19059765 C249.894399,4.28198961 248.236788,2.14098672 244.988781,2.14098672 C241.763185,2.14098672 240.083219,4.28198961 240.083219,9.19059765 L240.083219,10.8094023 C240.083219,15.7180266 241.763185,17.8590133 244.988781,17.8590133 C248.236788,17.8590133 249.894399,15.7180266 249.894399,10.8094023 L249.894399,10.8094023 Z" id="Shape" fill="#FFFFFF"></path>
                <polygon id="Path" fill="#FFFFFF" points="257 0 258.43418 0 267.848723 13.3200056 267.848723 0 270 0 270 18 268.56582 18 259.174476 4.67999435 259.174476 18 257 18"></polygon>
                <path d="M272,17.8079892 C272.716826,14.6159858 273.23206,12.839986 273.926421,10.3199982 C274.923222,6.79182809 276.150796,3.34329025 277.600025,0 L280.400017,0 C281.868972,3.33432273 283.097098,6.78443844 284.073593,10.3199982 C284.790405,12.8400009 285.305639,14.6160007 286,17.8079892 L286,18 L283.916821,18 C283.513609,16.1999896 283.200008,14.9039946 282.864012,13.5840038 L275.136043,13.5840038 C274.800047,14.9039946 274.508843,16.1999896 274.105631,18 L272,18 L272,17.8079892 Z M275.673646,11.6159932 L282.326438,11.6159932 C282.214416,11.2319864 282.124859,10.7759923 281.990427,10.3199982 C281.238396,7.41307116 280.241223,4.58542979 279.011226,1.87199774 C277.781259,4.58544419 276.784088,7.41308247 276.032024,10.3199982 C275.897634,10.7760072 275.763258,11.2320013 275.673646,11.6159932 Z" id="Shape" fill="#FFFFFF"></path>
                <path d="M291.036474,13.1020294 L291.036474,0 L293.343329,0 L293.343329,13.2936604 C293.343329,15.1619556 294.300398,16.0002802 295.821939,16.0002802 L301,16.0002802 L301,17.9643984 L296.018245,17.9643984 C294.650548,18.1362892 293.278483,17.6795772 292.30339,16.7278547 C291.328297,15.7761322 290.860367,14.4369496 291.036474,13.1020294 Z" id="Path" fill="#FFFFFF"></path>
                <path d="M63,25 L70.9883794,25 C76.1378705,25 78.4485482,27.4266713 78.4485482,32.8693337 C78.7454598,36.1298774 76.8962061,39.1858049 73.9592379,40.2880055 C76.6725193,43.2626061 78.7341822,46.8238717 80,50.7226684 L80,51 L76.7980212,51 C75.5641517,47.3452428 73.5808654,44.019759 70.9883794,41.2586582 L66.0699036,41.2586582 L66.0699036,51 L63,51 L63,25 Z M70.1961085,38.4160132 C74.058238,38.4160132 75.3785996,36.0933432 75.3785996,32.8693337 C75.3785996,29.0560043 74.0912381,27.8426766 70.7242441,27.8426766 L66.0699036,27.8426766 L66.0699036,38.4160132 L70.1961085,38.4160132 Z" id="Shape" fill="#FFFFFF"></path>
                <path d="M84,43.9627241 L84,25 L97,25 L97,27.8426766 L86.8957326,27.8426766 L86.8957326,35.8159958 L96.0142246,35.8159958 L96.0142246,38.693329 L86.8957326,38.693329 L86.8957326,44.2399928 C86.8957326,46.9440114 88.0971551,48.1573234 90.0070983,48.1573234 L97,48.1573234 L97,51 L90.2535562,51 C86.1564011,51 84,48.8160667 84,43.9627241 Z" id="Path" fill="#FFFFFF"></path>
                <path d="M101,39.5953185 L101,36.4047278 C101,28.9712758 105.745757,25 113.169489,25 C115.17194,25.0098082 117.152959,25.4134475 119,26.1879864 L119,31.8903271 L116.08476,31.8903271 L116.08476,28.1906061 C114.955116,27.9032539 113.792568,27.7662861 112.627165,27.7832432 C107.881408,27.7832432 104.152598,30.1931795 104.152598,36.4046815 L104.152598,39.5952722 C104.152598,45.1618665 107.067839,48.2166952 112.118715,48.2166952 L113.711874,48.2166952 C115.430404,48.1430235 117.125227,47.7875675 118.728831,47.1644862 L119,47.1644862 L119,49.8119982 C117.326076,50.532803 115.532888,50.9356509 113.711874,51 L112.118669,51 C104.423721,51 101,46.2141371 101,39.5953185 Z" id="Path" fill="#FFFFFF"></path>
                <path d="M131,49.9477633 L131,47.1644821 L131.26892,47.1644821 C133.318496,47.7517519 135.42691,48.1046996 137.554512,48.216688 L138.596543,48.216688 C141.756179,48.216688 143.87383,47.0287206 143.87383,43.8381085 C143.87383,41.0548274 142.462053,40.2062638 140.176339,39.5952906 L136.781401,38.6788462 C134.361334,38.000054 131.26892,36.4047094 131.26892,31.8903221 C131.26892,27.7832503 134.394937,25 139.403395,25 L140.176491,25 C142.147776,25.028128 144.101044,25.3836174 145.958015,26.0522213 L145.958015,28.7336736 L145.689094,28.7336736 C143.900037,28.1772948 142.047015,27.8578271 140.176491,27.7832812 L139.403395,27.7832812 C136.243744,27.7832812 134.395014,28.971264 134.395014,31.890353 C134.395014,34.537888 136.075681,35.2506746 138.092475,35.8616324 L141.352982,36.8120249 C143.94122,37.5587596 147,38.9164366 147,43.8381239 C147,48.2167034 143.873983,51 138.596696,51 L137.554665,51 C135.335754,50.917409 133.134882,50.5640975 131,49.9477633 Z" id="Path" fill="#FFFFFF"></path>
                <polygon id="Path" fill="#FFFFFF" points="157.327388 27.8426766 149 27.8426766 149 25 169 25 169 27.8426766 160.672612 27.8426766 160.672612 51 157.327388 51"></polygon>
                <path d="M165,50.7225897 C166.075209,46.1119221 166.848,43.5465929 167.889619,39.9065938 C169.384814,34.810373 171.226165,29.8291753 173.399997,25 L177.600018,25 C179.803432,29.8162611 181.645635,34.7997616 183.110427,39.9066725 C184.185621,43.5466716 184.958427,46.1120008 186,50.7226684 L186,51 L182.875203,51 C182.27041,48.3999984 181.800009,46.5279904 181.296002,44.6213572 L169.703982,44.6213572 C169.200006,46.5280219 168.763195,48.4000299 168.158387,51 L165,51 L165,50.7225897 Z M170.510393,41.7785861 L180.489622,41.7785861 C180.321625,41.2239229 180.187218,40.5652584 179.985615,39.9065938 C178.85755,35.7077045 177.361791,31.6233346 175.51681,27.7039242 C173.671852,31.6233244 172.176118,35.7076843 171.048082,39.9065623 C170.846388,40.5652269 170.6448,41.2238914 170.510393,41.7785861 L170.510393,41.7785861 Z" id="Shape" fill="#FFFFFF"></path>
                <polygon id="Path" fill="#FFFFFF" points="190 25 192.206382 25 206.690379 44.2399928 206.690379 25 210 25 210 51 207.793618 51 193.345198 31.7599758 193.345198 50.9999843 190 50.9999843"></polygon>
                <path d="M217,25 L224.212993,25 C231.588422,25 235,28.6399991 235,35.8159958 L235,39.6293252 C235,46.3893324 232.108318,51 224.732874,51 L217,51 L217,25 Z M224.732874,48.1573234 C229.931422,48.1573234 231.978333,45.3146626 231.978333,39.6293724 L231.978333,35.8160431 C231.978333,30.1307057 229.314081,27.8427238 224.212993,27.8427238 L220.054148,27.8427238 L220.054148,48.1573234 L224.732874,48.1573234 Z" id="Shape" fill="#FFFFFF"></path>
                <path d="M236,50.7225897 C237.075271,46.1119221 237.848045,43.5465929 238.889634,39.9065938 C240.38485,34.8103762 242.226212,29.8291793 244.400043,25 L248.599973,25 C250.803393,29.8162582 252.645596,34.7997592 254.110381,39.9066725 C255.185591,43.5466716 255.958366,46.1120008 257,50.7226684 L257,51 L253.875188,51 C253.27038,48.3999984 252.799994,46.5279904 252.295972,44.6213572 L240.703967,44.6213572 C240.199945,46.5280219 239.763165,48.4000299 239.158372,51 L236,51 L236,50.7225897 Z M241.510424,41.7785861 L251.489668,41.7785861 C251.32164,41.2239229 251.187233,40.5652584 250.985661,39.9065938 C249.857577,35.707715 248.36183,31.6233477 246.516887,27.7039242 C244.671895,31.6233332 243.176126,35.7077032 242.048052,39.9065938 C241.846479,40.5652269 241.644892,41.2238914 241.510424,41.7785861 L241.510424,41.7785861 Z" id="Shape" fill="#FFFFFF"></path>
                <path d="M263,25 L270.988393,25 C276.137894,25 278.44856,27.4266713 278.44856,32.8693337 C278.745465,36.1298803 276.896203,39.1858059 273.959227,40.2880055 C276.672505,43.2626133 278.73417,46.8238767 280,50.7226684 L280,51 L276.798046,51 C275.564149,47.3452517 273.580857,44.0197722 270.988378,41.2586582 L266.069924,41.2586582 L266.069924,51 L263,51 L263,25 Z M270.196076,38.4160132 C274.058198,38.4160132 275.378606,36.0933432 275.378606,32.8693337 C275.378606,29.0560043 274.091228,27.8426766 270.724258,27.8426766 L266.069924,27.8426766 L266.069924,38.4160132 L270.196076,38.4160132 Z" id="Shape" fill="#FFFFFF"></path>
                <path d="M290.212975,25 C297.588417,25 301,28.6399991 301,35.8159958 L301,39.6293252 C301,46.3893324 298.108299,51 290.732857,51 L283,51 L283,25 L290.212975,25 Z M290.212975,27.8427238 L286.054124,27.8427238 L286.054124,48.1573234 L290.732857,48.1573234 C295.931414,48.1573234 297.978328,45.3146626 297.978328,39.6293724 L297.978328,35.8160431 C297.978328,30.1307057 295.314072,27.8427238 290.212975,27.8427238 Z" id="Combined-Shape" fill="#FFFFFF"></path>
                <g id="I-RECLogoO" transform="translate(0.179048, 0.000000)">
                    <path d="M24.3399476,15.8087696 C23.4124827,16.6385714 22.2329836,17.1291434 20.9929499,17.2008381 C22.5537509,18.7834539 23.6869615,20.7396762 24.2854781,22.8846154 C24.882739,22.6902974 25.4636012,22.4483997 26.0225293,22.1612273 C26.4390115,21.9516589 26.8431722,21.7182503 27.233017,21.4621533 C29.6376777,19.8421591 31.3619653,17.3872926 32.0749693,14.5686706 L32.0749693,14.5686706 C32.5731817,12.1837105 34.5635783,10.4051325 36.9799942,10.1856399 C39.3964101,9.96614737 41.6722158,11.3572095 42.5883656,13.6136975 C43.5045154,15.8701856 42.8461797,18.4629718 40.965999,20.0032183 C43.1505941,20.3674794 45.2077917,21.2813738 46.9458091,22.6597034 C50.1502178,18.2501906 49.9206309,12.2076889 46.3909473,8.05628305 C42.8612636,3.90487716 36.9552247,2.73101734 32.1173279,5.21931762 C31.6995813,5.42877683 31.2952953,5.66428822 30.9068402,5.92447095 C28.4172001,7.60065111 26.6591657,10.1687771 25.9922579,13.103663 L25.9922579,13.103663 C25.7103991,14.1484133 25.1321076,15.0882843 24.3278316,15.8087798" id="Path" fill="#6595AB"></path>
                    <path d="M30.4361734,24.8199627 C32.4762357,26.4446156 35.0011801,27.325391 37.6004426,27.3190721 C37.9113185,27.3245095 38.222253,27.312447 38.5317965,27.2829409 L38.9377706,27.2829409 C41.2623469,27.2785649 43.333889,28.7616582 44.0968233,30.9764967 C44.8597575,33.1913351 44.1461844,35.6504978 42.3197119,37.1008953 C40.4932394,38.5512928 37.9558203,38.6737351 36.0004206,37.4058307 C36.323597,39.5870788 36.0977639,41.8152792 35.3436971,43.8854464 C40.4396196,45.5604964 46.0093006,43.4899891 48.8087039,38.8798824 C51.6081072,34.2697756 50.9058723,28.324487 47.1110127,24.5068236 C46.7871466,24.18318 46.4442319,23.8795241 46.0841344,23.5975081 C44.0438437,21.9732765 41.5190492,21.092554 38.9198652,21.0984005 L38.0840325,21.0984005 C37.916986,21.1074045 37.749582,21.1074045 37.5825355,21.0984005 C36.6140835,21.1002801 35.6631306,20.8381146 34.8302621,20.3396338 C33.784767,19.7275514 32.9700788,18.7829699 32.513808,17.6538462 C31.5022509,19.5984309 30.0219889,21.2551142 28.2092764,22.4714022 C28.569938,22.9758127 28.969171,23.450989 29.403321,23.8925817" id="Path" fill="#6595AB"></path>
                    <path d="M17.5807801,37.7511927 C15.7497893,38.6736566 13.7296288,39.1541653 11.6811131,39.154468 L11.1525046,39.154468 C11.1459831,44.6328125 14.8859784,49.3990169 20.1917801,50.6739995 C25.4975819,51.9489821 30.9810475,49.3991727 33.4448743,44.5113159 C33.6533698,44.0964184 33.8399544,43.6707796 34.0038526,43.236169 C35.0080725,40.4682542 34.9539479,37.4246475 33.8519558,34.6945005 C33.8352488,34.6631314 33.8210278,34.6304899 33.8094247,34.5968787 C32.8873603,32.3311446 33.5425895,29.7265083 35.425603,28.1723223 C33.2327237,27.8085927 31.1686026,26.8887818 29.4287213,25.5 C29.058233,26.0129314 28.7271553,26.5534316 28.4383561,27.1168188 C27.587757,28.782263 27.1421778,30.6263691 27.1381208,32.4980665 C27.1358524,34.0299129 27.4331168,35.547303 28.0130473,36.9641409 L28.049502,37.0617626 C28.9552701,39.1530759 28.500089,41.5875663 26.9005992,43.2065536 C25.3011093,44.825541 22.8804233,45.3019742 20.7906509,44.4090978 C18.7008786,43.5162215 17.3641743,41.4344055 17.4167339,39.1544766 C17.4091875,38.6814791 17.4643537,38.2095764 17.5807801,37.7511927 L17.5807801,37.7511927 Z" id="Path" fill="#6595AB"></path>
                    <path d="M15.7813566,13.7654415 C16.2275329,14.7734265 16.964688,15.6256956 17.8985937,16.2133061 L17.8985937,16.2133061 C20.396356,17.7261827 22.2292772,20.1252698 23.030201,22.9300011 C23.3278859,23.9583606 23.4769187,25.0238899 23.4727855,26.0943159 L22.9524449,26.0943159 C20.9383472,26.0928097 18.9517436,26.5609895 17.1509795,27.4615385 C17.2683317,27.0131478 17.3286152,26.5517825 17.3304055,26.0883451 C17.3329238,25.3382369 17.1780863,24.5959121 16.8758583,23.9091466 C16.4300667,22.8923017 15.6855038,22.0345343 14.7406856,21.4493385 L14.6689158,21.4015749 C12.2160654,19.8790135 10.418748,17.4995703 9.62701729,14.726676 C9.33157948,13.706001 9.18256909,12.6486736 9.18441558,11.5862463 C9.18059292,6.56498456 12.419858,2.1137416 17.2047407,0.565123327 C21.9896233,-0.983494947 27.2290445,0.723637172 30.1773655,4.79192317 C28.3677476,6.01073443 26.8933184,7.6632254 25.8890675,9.59810426 C24.7944767,6.79403702 21.6305813,5.40600107 18.8210467,6.49728526 C16.0115121,7.58856945 14.619473,10.7462292 15.7112848,13.5513758 C15.7409171,13.6274044 15.7722489,13.7027391 15.8052804,13.7773799 L15.7813566,13.7654415 Z" id="Path" fill="#6595AB"></path>
                    <path d="M11.1786453,37.9170249 C10.7239287,37.8989872 10.2704786,37.8565936 9.82020485,37.7900226 C4.51112224,36.9529205 0.464178023,32.5433857 0.0370401013,27.130324 C-0.390097821,21.7172623 2.91419636,16.7152927 8.02490764,15.0384615 C8.61448526,17.1821706 9.73489537,19.1386855 11.2803801,20.7233269 C8.35135565,20.9179946 6.0993104,23.4190708 6.18305179,26.3843171 C6.26679317,29.3495635 8.65632322,31.7167645 11.5915662,31.7422917 C11.7709813,31.75147 11.9507411,31.75147 12.1301562,31.7422917 C13.2370944,31.6252127 14.2816606,31.1670683 15.1223177,30.4299364 L15.1223177,30.4299364 C17.2206451,28.6184943 19.8909129,27.6253036 22.650593,27.6298378 L23.0874515,27.6298378 C23.5423715,27.6446572 23.9960006,27.6870676 24.4458902,27.7568401 C25.0545238,27.8550554 25.6547414,28.0006342 26.2411874,28.1922775 C25.7110344,29.6508059 25.4395774,31.1923975 25.4392897,32.746217 C25.4584658,33.3995927 25.5264817,34.0505692 25.6427561,34.6935837 C24.7664658,34.1240071 23.7463407,33.8216555 22.7044511,33.8227089 C22.525036,33.8135306 22.3452763,33.8135306 22.1658611,33.8227089 C21.0316708,33.9321016 19.9610241,34.4021642 19.1078719,35.1653053 L19.1078719,35.1653053 C17.0177393,36.949318 14.3693194,37.9264796 11.6334548,37.9230769 L11.196598,37.9230769" id="Path" fill="#6595AB"></path>
                    <ellipse id="Oval" fill="#2F4A52" cx="38.7057514" cy="32.6923077" rx="3.93617811" ry="3.92307692"></ellipse>
                    <ellipse id="Oval" fill="#2F4A52" cx="37.393692" cy="15.6923077" rx="3.93617811" ry="3.92307692"></ellipse>
                    <ellipse id="Oval" fill="#2F4A52" cx="22.961039" cy="39.2307692" rx="3.93617811" ry="3.92307692"></ellipse>
                    <ellipse id="Oval" fill="#2F4A52" cx="11.8085343" cy="26.1538462" rx="3.93617811" ry="3.92307692"></ellipse>
                    <path d="M24.8734314,12.1229799 C25.2506118,9.80642774 23.6721688,7.62374378 21.3478804,7.24781888 C19.0235921,6.87189398 16.833619,8.44508324 16.4564387,10.7616354 C16.0792584,13.0781876 17.6577013,15.2608716 19.9819897,15.6367965 C22.3062781,16.0127214 24.4962511,14.4395321 24.8734314,12.1229799 Z" id="Oval" fill="#2F4A52"></path>
                </g>
            </g>
        </g>
    </g>
</svg>