<svg xmlns="http://www.w3.org/2000/svg" 
    xmlns:xlink="http://www.w3.org/1999/xlink" version="1.1" x="0px" y="0px" viewBox="0 0 100 125" enable-background="new 0 0 100 100" xml:space="preserve">
    <g fill="#555555">
        <path d="M29.063,25.649c-0.607-0.305-8.339,6.133-8.339,10.877c-0.008,6.477,9.017,21.158,10.539,26.831   c1.309,4.869-2.218,10.712-1.25,10.977c0.888,0.572,9.308-8.024,9.637-11.693c0.422-5.836-9.833-22.862-10.651-27.263   C28.046,30.257,29.743,25.764,29.063,25.649z"/>
        <path d="M48.354,18.949c-0.774-0.389-10.634,7.82-10.634,13.87c-0.011,8.258,11.5,26.979,13.44,34.213   c1.666,6.21-2.828,13.66-1.597,13.996c1.135,0.73,11.87-10.23,12.291-14.909c0.54-7.441-12.54-29.152-13.583-34.764   C47.057,24.823,49.22,19.095,48.354,18.949z"/>
        <path d="M68.266,25.649c-0.606-0.305-8.338,6.133-8.338,10.877c-0.01,6.477,9.016,21.158,10.539,26.831   c1.307,4.869-2.218,10.712-1.252,10.977c0.889,0.572,9.31-8.024,9.637-11.693c0.424-5.836-9.833-22.862-10.65-27.263   C67.249,30.257,68.946,25.764,68.266,25.649z"/>
    </g>
</svg>