<svg xmlns="http://www.w3.org/2000/svg" 
    xmlns:xlink="http://www.w3.org/1999/xlink" version="1.1" x="0px" y="0px" viewBox="0 0 96 120" enable-background="new 0 0 96 96" xml:space="preserve">
    <g fill="#555555">
        <path d="M75.827,49.058l-5.085-1.198l1.509-5l-5.078-1.187l1.279-4.229l-1.436-0.435l-0.179,0.591l0.194-16.545l-1.5-0.018  l-0.168,14.381L48.031,5.341l-16.8,29.042l-3.008,0.724l1.492,5.027l-5.103,1.229l1.486,5.038l-4.34,1.05l0.353,1.458l0.609-0.147  L8.288,56.884l0.735,1.308l12.535-7.056L4.201,81.201h33.786l2.132,2.24l3.621-3.804l3.618,3.806l3.606-3.804l3.066,3.23  l1.088-1.032l-0.175-0.185l13.749,8.151l0.765-1.29l-12.368-7.333L91.8,81.202L74.938,52.013L75.827,49.058z M47.503,61.748  L47.327,50.26l-6.188-0.508l7.814-15.444v11.393l5.854,0.799L47.503,61.748z"/>
    </g>
</svg>