<svg xmlns="http://www.w3.org/2000/svg" 
	xmlns:xlink="http://www.w3.org/1999/xlink" version="1.1" x="0px" y="0px" viewBox="0 0 100 125" xml:space="preserve">
	<style type="text/css">
	.st0{fill:#555555;}
	</style>
	<g>
		<path class="st0" d="M37.9,58.8C37.9,58.8,37.9,58.8,37.9,58.8c0-2.7-1.1-5.1-3-6.9v0C36.8,53.7,37.9,56.1,37.9,58.8z"/>
		<polygon class="st0" points="77.2,61.5 77.2,61.5 88.8,56.7 88.8,56.6  "/>
		<path class="st0" d="M70.4,90.8C70.4,90.8,70.4,90.8,70.4,90.8c0-0.5,0.1-0.9,0.1-1.4c0,0,0,0,0,0C70.5,89.8,70.4,90.3,70.4,90.8z"/>
		<path class="st0" d="M78.2,67.9C78.2,67.9,78.2,67.9,78.2,67.9c0.8-1.1,1.6-2.2,2.4-3.2l0.3-0.4l0,0l-0.3,0.3   C79.7,65.6,78.9,66.7,78.2,67.9z"/>
		<path class="st0" d="M31.1,53.9V29.4H26v24.4c-1.8,0.9-3,2.8-3,4.9c0,3.1,2.5,5.5,5.5,5.5c3.1,0,5.5-2.5,5.5-5.5   C34.1,56.6,32.9,54.8,31.1,53.9z"/>
		<path class="st0" d="M71,86c-0.1,0.8-0.3,1.6-0.4,2.4c0,0,0,0,0,0C70.8,87.6,70.9,86.8,71,86c1.2-6.4,3.5-12.4,6.6-17.3   c0,0,0,0,0,0C74.5,73.6,72.2,79.6,71,86z"/>
		<path class="st0" d="M58.5,93.1c0,0.9,0,1.7,0,2.6c0,0,0,0,0,0c0,0,0,0,0,0C58.5,94.8,58.4,93.9,58.5,93.1z"/>
		<path class="st0" d="M34.9,25.2c0-3.5-2.8-6.3-6.3-6.3c-3.5,0-6.3,2.8-6.3,6.3v21.1v5.7v0c-1.9,1.7-3,4.2-3,6.8   c0,5.2,4.2,9.3,9.4,9.3c5.2,0,9.3-4.2,9.4-9.3c0-2.6-1.1-5.1-3-6.8v0v-5.6L34.9,25.2L34.9,25.2z M35.4,58.8c0,3.8-3.1,6.8-6.8,6.8   c-3.8,0-6.8-3.1-6.8-6.8c0-2.3,1.1-4.4,3-5.6v-28c0-2.1,1.7-3.8,3.8-3.8c2.1,0,3.8,1.7,3.8,3.8v28C34.2,54.4,35.4,56.5,35.4,58.8z"/>
		<path class="st0" d="M70.3,91.9C70.3,91.9,70.3,91.9,70.3,91.9C70.3,91.9,70.3,91.9,70.3,91.9c0-0.1,0-0.2,0-0.3c0,0,0,0,0,0   C70.3,91.7,70.3,91.8,70.3,91.9z"/>
		<path class="st0" d="M54.6,93.3c0-2.9,0.3-5.8,0.9-8.9c1.5-8.1,4.8-15.5,9.4-20.9l0,0c-4.5,5.4-7.9,12.8-9.4,20.9   C54.9,87.4,54.6,90.4,54.6,93.3z"/>
		<polygon class="st0" points="44.4,59.6 44.4,59.6 55.9,54.7 55.9,54.7  "/>
		<path class="st0" d="M43.2,95.4c-0.1-1-0.2-2.1-0.2-3.2C43,93.4,43.1,94.4,43.2,95.4c0,0.1,0,0.1,0,0.2c0,0,0,0,0,0c0,0,0,0,0,0   C43.2,95.6,43.2,95.5,43.2,95.4z"/>
		<path class="st0" d="M39.1,91.6c0-2,0.1-4,0.3-6.1c0,0,0,0,0,0C39.2,87.6,39.1,89.6,39.1,91.6z"/>
		<path class="st0" d="M39.5,84.6C39.5,84.6,39.5,84.6,39.5,84.6c0.1-1,0.3-2.1,0.5-3.1c1.3-7.3,4.2-14,8-19.2l0,0   c-3.8,5.2-6.7,11.9-8,19.2C39.8,82.5,39.6,83.6,39.5,84.6z"/>
		<polygon class="st0" points="60.7,60.3 60.8,60.3 72.3,55.5 72.3,55.5  "/>
		<polygon class="st0" points="83.9,66.6 83.8,66.5 84,66.7 84,66.7  "/>
		<path class="st0" d="M22.2,51.9c-1.9,1.7-3,4.2-3,6.8c0,0,0,0,0,0C19.2,56.1,20.3,53.7,22.2,51.9L22.2,51.9z"/>
		<path d="M60.5,95.2C60.5,95.2,60.5,95.2,60.5,95.2c3.4-0.7,6.7-1.8,9.8-3.3c0,0,0,0,0,0C67.2,93.3,63.9,94.4,60.5,95.2z"/>
		<path d="M59.5,95.4c-0.4,0.1-0.7,0.2-1,0.2c0,0,0,0,0,0C58.9,95.6,59.2,95.5,59.5,95.4C59.6,95.4,59.5,95.4,59.5,95.4z"/>
		<path d="M54.6,96.1C54.6,96.1,54.6,96.1,54.6,96.1c-1.2,0.1-2.5,0.1-3.8,0.1c-2.6,0-5.1-0.2-7.6-0.7c0,0,0,0,0,0   c2.5,0.4,5,0.7,7.6,0.7C52.1,96.3,53.4,96.2,54.6,96.1z"/>
		<path d="M6.4,57.8C6.4,57.8,6.4,57.8,6.4,57.8c-0.3-2.1-0.5-4.3-0.5-6.6c0,0,0,0,0,0C5.9,53.5,6,55.7,6.4,57.8z"/>
		<path d="M8,65C8,65,8,65,8,65c-0.7-2.1-1.2-4.2-1.5-6.4c0,0,0,0,0,0C6.8,60.8,7.4,63,8,65z"/>
		<path d="M39.3,94.8C39.3,94.8,39.3,94.7,39.3,94.8c-14.5-3.9-26.2-14.9-31-29c0,0,0,0,0,0C13.1,79.9,24.7,90.9,39.3,94.8z"/>
		<path d="M92.6,68.2C92.6,68.2,92.6,68.2,92.6,68.2c-0.4,0.9-0.8,1.8-1.2,2.7c0,0,0,0,0,0C91.8,70,92.2,69.1,92.6,68.2z"/>
		<path d="M90.9,71.8C90.9,71.8,90.9,71.8,90.9,71.8c-1.4,2.7-3.1,5.3-5.1,7.7c0,0,0,0,0,0C87.8,77.1,89.5,74.5,90.9,71.8z"/>
		<path d="M95.9,51.3C95.9,51.3,95.9,51.3,95.9,51.3c0,5.6-1.1,11-3,16c0,0,0,0,0,0C94.8,62.3,95.9,56.9,95.9,51.3z"/>
		<path d="M85.6,79.8C85.6,79.8,85.7,79.7,85.6,79.8c-3.1,3.8-6.9,7.1-11.2,9.8c0,0,0,0,0,0C78.7,86.9,82.5,83.6,85.6,79.8z"/>
		<path fill="#292929" d="M32.3,53.1v-28c0-2.1-1.7-3.8-3.8-3.8c-2.1,0-3.8,1.7-3.8,3.8v28c-1.9,1.3-3,3.4-3,5.6c0,3.8,3.1,6.8,6.8,6.8   c3.8,0,6.8-3.1,6.8-6.8C35.4,56.5,34.2,54.4,32.3,53.1z M28.5,64.3c-3.1,0-5.5-2.5-5.5-5.5c0-2.1,1.2-4,3-4.9V29.4h5.1v24.4   c1.8,0.9,3,2.8,3,4.9C34.1,61.8,31.6,64.3,28.5,64.3z"/>
		<path d="M47.6,62l0.3,0.3c0,0,0,0,0,0L47.6,62l-3.2-2.5l0,0L47.6,62z"/>
		<path d="M43.8,82.2c0-0.2,0.1-0.4,0.1-0.6c1.3-6.7,3.8-12.6,7.1-17l0.1,0.1l3.2,2.5l0.5-3.6l0.1-1l0.4-3.3l0.1-0.9l0.5-3.7l0,0   l-1.6,12.4l-3.2-2.5L51,64.6C47.6,69.1,45.1,75.2,43.8,82.2c-0.6,3.4-0.9,6.8-0.8,10.1C42.9,89,43.2,85.6,43.8,82.2   C43.8,82.2,43.8,82.2,43.8,82.2z"/>
		<path d="M28.5,68.1c-5.2,0-9.3-4.2-9.4-9.3c0,0,0,0,0,0c0,4.3,2.9,7.9,6.9,9c0,0,0,0,0,0C26.9,68,27.7,68.1,28.5,68.1   c5.2,0,9.4-4.2,9.4-9.3c0,0,0,0,0,0C37.9,63.9,33.7,68.1,28.5,68.1z"/>
		<path d="M64,62.8l0.8,0.6c0,0,0,0,0,0L64,62.8l-3.2-2.5l0,0L64,62.8z"/>
		<path d="M39.2,92.8c0,0.3,0,0.6,0,0.8c0,0.4,0,0.7,0.1,1.1c0,0,0,0,0,0c-0.1-1-0.2-2.1-0.2-3.2C39.1,92,39.1,92.4,39.2,92.8z"/>
		<path d="M58.5,91.2c0.1-2,0.3-4.1,0.7-6.1c1.4-7.8,4.4-14.6,8.5-19.2l0.1-0.1l2.8,2.1L72,58l0.1-0.9l0.2-1.7l0,0l-1.6,12.4   l-2.8-2.1l-0.1,0.1c-4,4.6-7.1,11.4-8.5,19.2c-0.5,2.7-0.8,5.4-0.8,8c0-0.3,0-0.7,0-1C58.5,91.8,58.5,91.5,58.5,91.2z"/>
		<path fill="#555555" d="M95.6,46.2H37.9v-5.6h56.7C89.8,21,72,6.3,50.9,6.3S11.9,21,7.1,40.7h12v5.6h-13c-0.2,1.7-0.3,3.3-0.3,5c0,0,0,0,0,0   c0,2.2,0.2,4.4,0.5,6.6c0.1-0.1,0.2-0.2,0.4-0.2c0.1,0,0.2,0.1,0.3,0.1c0.1,0.1,0.2,0.2,0.2,0.4c0,0.3-0.3,0.5-0.5,0.5   c-0.1,0-0.1,0-0.2-0.1C6.8,60.8,7.4,63,8,65c0.2,0.1,0.3,0.2,0.3,0.4c0,0.1,0,0.2-0.1,0.3c4.8,14.1,16.5,25.1,31,29   c0-0.4,0-0.7-0.1-1.1c-0.1,0.1-0.1,0.1-0.2,0.1c0,0,0,0-0.1,0c-0.3,0-0.5-0.2-0.5-0.5c0-0.3,0.2-0.5,0.5-0.5c0.1,0,0.2,0,0.3,0.1   c0-0.4-0.1-0.8-0.1-1.2c0-2,0.1-4,0.3-6.1c-0.1,0.1-0.2,0.1-0.3,0c-0.1,0-0.2-0.1-0.3-0.2c-0.1-0.2-0.1-0.5,0.1-0.7   c0.2-0.2,0.5-0.2,0.7,0c0.1-1,0.3-2.1,0.5-3.1c1.3-7.3,4.1-14,8-19.2L47.6,62l-3.2-2.4l0,0l0,0l11.5-4.9l0,0l0,0l-0.5,3.7   c0.1,0.1,0.2,0.2,0.2,0.3c0,0.2,0,0.3-0.1,0.4c0,0.1-0.1,0.1-0.2,0.2L55,62.6c0,0,0,0,0.1,0c0.1,0,0.3,0.1,0.3,0.3   c0.1,0.3-0.1,0.6-0.3,0.7c-0.1,0-0.1,0-0.2,0l-0.5,3.6l-3.2-2.5L51,64.6c-3.3,4.4-5.8,10.3-7.1,17c0.1-0.1,0.2-0.2,0.4-0.1   c0.3,0.1,0.4,0.3,0.4,0.6c0,0.1-0.1,0.2-0.2,0.3c-0.1,0.1-0.2,0.2-0.4,0.1c-0.2,0-0.3-0.2-0.3-0.2c0,0,0,0,0,0   c-0.6,3.4-0.9,6.8-0.8,10.1c0,1.1,0.1,2.1,0.2,3.2c0,0.1,0,0.1,0,0.2c2.5,0.4,5,0.7,7.6,0.7c1.3,0,2.5-0.1,3.8-0.2   c0-0.9-0.1-1.9-0.1-2.8c0-2.9,0.3-5.8,0.9-8.9c1.5-8.1,4.8-15.5,9.4-20.9L64,62.8l-3.2-2.4l0,0l0,0l11.5-4.9l0,0l0,0l-0.2,1.7   c0.1,0,0.1-0.1,0.2,0c0.2,0,0.3,0.1,0.4,0.2c0.1,0.1,0.1,0.2,0.1,0.4c0,0.2-0.1,0.3-0.2,0.3c-0.1,0-0.2,0.2-0.4,0.1   c-0.1,0-0.2-0.1-0.3-0.1l-1.3,9.9l-2.8-2.1l-0.1,0.1c-4,4.6-7.1,11.4-8.5,19.2c-0.4,2.1-0.6,4.1-0.7,6.1c0.1,0,0.2,0,0.3,0.1   c0.1,0.1,0.1,0.2,0.1,0.3c0,0.1,0,0.2-0.1,0.3c-0.1,0.1-0.2,0.1-0.3,0.1c0,0,0,0,0,0c0,0.3,0,0.7,0,1c0,0.9,0,1.7,0,2.6   c0.4-0.1,0.7-0.1,1-0.2c-0.1-0.2-0.1-0.5,0-0.7c0.1-0.1,0.3-0.2,0.4-0.2c0,0,0,0,0.1,0c0,0,0,0,0.1,0c0.1,0,0.2,0,0.4,0.2   c0.1,0.1,0.1,0.3,0.1,0.5c3.4-0.7,6.7-1.9,9.8-3.3c0-0.1,0-0.2,0-0.3c-0.2-0.2-0.2-0.5-0.1-0.7c0.1-0.1,0.1-0.1,0.2-0.1   c0-0.5,0.1-0.9,0.1-1.4c-0.1,0-0.2,0-0.4,0l0,0c-0.2-0.2-0.3-0.5-0.1-0.7c0.1-0.2,0.4-0.3,0.7-0.2c0.1-0.8,0.2-1.6,0.4-2.4   c1.2-6.4,3.5-12.4,6.6-17.3c-0.1,0-0.2,0-0.3-0.1c-0.1-0.1-0.2-0.3-0.2-0.4c0-0.1,0-0.2,0.1-0.4c0.1-0.1,0.3-0.2,0.4-0.2   c0.1,0,0.2,0,0.3,0.1c0,0,0,0.1,0.1,0.1c0.8-1.1,1.6-2.2,2.4-3.3l0.3-0.3L80.4,64l-3.2-2.4l0,0l0,0l11.5-4.9l0,0l0,0l-1.4,11.4   c0.1,0,0.1-0.1,0.2-0.1c0.2,0,0.3,0.1,0.4,0.2c0.1,0.1,0.2,0.2,0.2,0.4c0,0.3-0.2,0.5-0.5,0.5l-0.1,0c-0.1,0-0.3-0.1-0.3-0.1l0,0.2   L84,66.7l0,0l0,0l-0.5,0.5c-3.8,4.3-6.7,10.6-8.2,17.8c0,0,0.1,0,0.1,0.1c0.2,0.2,0.3,0.5,0.1,0.7C75.4,86,75.2,86,75.1,86   c0,0,0,0-0.1,0c0,0.2-0.1,0.5-0.1,0.7c-0.2,0.9-0.3,1.9-0.4,2.8c4.3-2.6,8-6,11.2-9.8c0-0.1,0-0.1,0.1-0.2c0,0,0,0,0.1,0   c1.9-2.4,3.6-5,5-7.7c-0.1-0.1-0.1-0.2-0.2-0.3c0-0.2,0-0.3,0.1-0.4c0-0.1,0.2-0.2,0.4-0.2l0,0c0.1,0,0.1,0,0.2,0   c0.4-0.9,0.8-1.8,1.2-2.7c-0.1,0-0.1,0-0.2-0.1c-0.3-0.1-0.3-0.4-0.2-0.7c0.1-0.2,0.3-0.2,0.4-0.3c0.1,0,0.2,0,0.3,0.1c0,0,0,0,0,0   c1.9-5,3-10.3,3-16c0,0,0,0,0,0C95.9,49.6,95.8,47.9,95.6,46.2z M46.4,89.2L46.4,89.2c-0.4,0-0.6-0.2-0.6-0.5   c0-0.3,0.2-0.5,0.5-0.5c0.3,0,0.6,0.2,0.6,0.5C46.8,89,46.6,89.2,46.4,89.2z M47.6,81.1c0.1-0.2,0.3-0.3,0.5-0.3   c0.1,0,0.2,0,0.3,0.1c0.1,0.1,0.2,0.2,0.2,0.4c0,0.3-0.2,0.5-0.5,0.5c-0.1,0-0.2,0-0.3-0.1L47.6,81.1z M48.7,92.7L48.7,92.7   c-0.2,0.1-0.3,0.1-0.4,0.1c-0.1,0-0.2-0.1-0.3-0.2c-0.1-0.2-0.1-0.5,0.1-0.7c0.3-0.2,0.6-0.1,0.8,0.1   C48.9,92.2,48.9,92.5,48.7,92.7z M49.7,78.7c-0.1,0.1-0.2,0.2-0.3,0.2l0,0c-0.3,0-0.5-0.2-0.5-0.5c0-0.3,0.2-0.5,0.5-0.6h0   c0.3,0,0.5,0.2,0.6,0.4C49.8,78.5,49.7,78.6,49.7,78.7z M50.8,69.7c-0.2,0.2-0.5,0.2-0.7,0.1l0,0c-0.2-0.2-0.2-0.5,0-0.7   c0.2-0.2,0.5-0.2,0.7-0.1c0.2,0.1,0.2,0.3,0.2,0.4C50.9,69.4,50.9,69.6,50.8,69.7z M51.5,73.3C51.5,73.3,51.5,73.3,51.5,73.3   c0.2-0.2,0.5-0.2,0.7,0c0.2,0.2,0.2,0.5,0,0.7l0,0c-0.2,0.2-0.5,0.2-0.7,0C51.3,73.8,51.3,73.5,51.5,73.3z M52,84   C52,84,51.9,84,52,84c-0.3,0-0.5-0.2-0.6-0.4c0-0.2,0-0.3,0.1-0.4c0.1-0.1,0.2-0.2,0.4-0.2h0c0.3,0,0.5,0.2,0.5,0.5   C52.5,83.7,52.3,84,52,84z M52.9,77.4L52.9,77.4c-0.3,0-0.6-0.2-0.6-0.4c-0.1-0.3,0.1-0.5,0.4-0.6c0,0,0,0,0,0   c0.3,0,0.6,0.1,0.6,0.4c0,0.2,0,0.3-0.1,0.4C53.1,77.3,53,77.4,52.9,77.4z M54.1,91.1c-0.1,0.1-0.3,0.2-0.4,0.2   c-0.1,0-0.2,0-0.4-0.1c-0.2-0.2-0.2-0.5,0-0.7c0.1-0.2,0.3-0.2,0.4-0.2c0.1,0,0.2,0,0.3,0.1C54.3,90.6,54.3,90.9,54.1,91.1z    M54.7,86.4c-0.1,0.1-0.2,0.1-0.4,0.1c-0.2,0-0.3-0.1-0.4-0.2c-0.1-0.1-0.1-0.2-0.1-0.4c0-0.2,0.1-0.3,0.2-0.3   c0.1,0,0.2-0.2,0.4-0.1c0.2,0,0.3,0.1,0.3,0.2c0.1,0.1,0.1,0.2,0.1,0.4C54.8,86.2,54.7,86.4,54.7,86.4z M65.9,76   c0.1-0.1,0.2-0.2,0.4-0.2h0c0.3,0,0.5,0.2,0.5,0.5c0,0.3-0.1,0.5-0.4,0.6c0,0,0,0-0.1,0c-0.3,0-0.5-0.2-0.5-0.4   C65.8,76.2,65.9,76.1,65.9,76z M60.7,86.5c-0.1,0.1-0.3,0.2-0.4,0.2c-0.1,0-0.2,0-0.4-0.1c-0.2-0.2-0.2-0.5,0-0.7c0,0,0,0,0.1-0.1   c0.2,0,0.4,0,0.7,0C60.8,85.9,60.9,86.3,60.7,86.5z M62.8,90.5c-0.2-0.2-0.3-0.4-0.1-0.7c0.2-0.3,0.4-0.3,0.7-0.2c0,0,0,0,0.1,0   c0.2,0.2,0.3,0.4,0.1,0.6C63.4,90.6,63.1,90.7,62.8,90.5C62.9,90.5,62.8,90.5,62.8,90.5z M63.8,93.5C63.8,93.5,63.8,93.6,63.8,93.5   c-0.3,0.2-0.6,0.2-0.8-0.1c-0.2-0.2-0.1-0.5,0.1-0.7c0,0,0,0,0.1,0c0.2-0.2,0.5-0.1,0.7,0.1C64.1,93.1,64,93.3,63.8,93.5z    M64.3,80.2c-0.1,0.3-0.4,0.3-0.7,0.2l-0.1,0c-0.2-0.2-0.3-0.4-0.1-0.7c0.1-0.1,0.2-0.2,0.3-0.2c0.1,0,0.2,0,0.4,0c0,0,0,0,0,0   C64.4,79.7,64.5,80,64.3,80.2z M64.7,87.8c-0.2-0.2-0.3-0.5-0.1-0.7c0.1-0.2,0.3-0.2,0.4-0.2c0.1,0,0.2,0,0.4,0.1   c0.2,0.2,0.3,0.5,0.1,0.7c-0.1,0.2-0.3,0.2-0.4,0.2C65,88,64.8,88,64.7,87.8z M66,90.7c-0.1,0.1-0.3,0.2-0.4,0.2   c-0.1,0-0.2,0-0.4-0.1c-0.2-0.2-0.2-0.5,0-0.7c0.1-0.1,0.3-0.2,0.4-0.2c0.1,0,0.2,0,0.3,0.1c0.1,0.1,0.2,0.3,0.2,0.4   C66.1,90.4,66.1,90.6,66,90.7z M66.9,79.9L66.9,79.9C66.7,80,66.6,80,66.5,80c-0.1,0-0.2-0.1-0.3-0.2c-0.2-0.2-0.1-0.5,0.1-0.7   c0.2-0.1,0.4-0.1,0.4-0.1c0.1,0,0.2,0.1,0.3,0.2C67.2,79.3,67.1,79.7,66.9,79.9z M69.7,73.4L69.7,73.4c-0.3,0-0.6-0.2-0.6-0.5   c0-0.2,0.1-0.3,0.1-0.4c0.1-0.1,0.2-0.2,0.4-0.2c0,0,0,0,0,0c0.3,0,0.5,0.2,0.6,0.5C70.2,73.1,70,73.3,69.7,73.4z M70.8,85.3   c-0.1,0.1-0.3,0.2-0.4,0.2c-0.1,0-0.2,0-0.4-0.1c-0.1-0.1-0.2-0.3-0.2-0.4c0-0.1,0-0.2,0.1-0.4c0.1-0.1,0.3-0.2,0.4-0.2   c0.1,0,0.2,0,0.4,0.1C71,84.8,71,85.1,70.8,85.3z M78.5,86.4L78.5,86.4c-0.3,0-0.5-0.2-0.5-0.5c0-0.3,0.2-0.5,0.5-0.6c0,0,0,0,0,0   c0.3,0,0.5,0.2,0.6,0.5C79,86.2,78.8,86.4,78.5,86.4z M78.8,83.9C78.8,84,78.6,84,78.5,84c-0.3,0-0.5-0.2-0.5-0.5   c0-0.2,0.1-0.3,0.2-0.4c0.1-0.1,0.2-0.1,0.4-0.1c0.3,0,0.5,0.2,0.5,0.5C79,83.7,78.9,83.8,78.8,83.9z M80.4,81.3   c-0.1,0.1-0.2,0.2-0.3,0.2l-0.1,0c-0.3,0-0.5-0.1-0.5-0.4c0,0,0,0,0,0c-0.1-0.3,0.1-0.5,0.4-0.6c0,0,0,0,0.1,0c0.1,0,0.2,0,0.3,0.1   c0.1,0.1,0.2,0.2,0.3,0.3C80.5,81.1,80.5,81.3,80.4,81.3z M81.7,71c-0.2-0.2-0.2-0.5,0-0.7c0.2-0.2,0.5-0.2,0.7-0.1   c0.3,0.2,0.3,0.5,0.1,0.7C82.3,71.1,82,71.2,81.7,71L81.7,71z M82.8,77.2c-0.1,0.2-0.5,0.3-0.7,0.2l-0.1,0   c-0.2-0.2-0.3-0.4-0.1-0.7c0.1-0.2,0.2-0.2,0.3-0.2c0.1,0,0.2,0,0.4,0c0,0,0,0,0,0C82.8,76.6,82.9,77,82.8,77.2z M83.7,69.5   c-0.1,0.1-0.2,0.1-0.3,0.1c-0.3,0-0.5-0.2-0.5-0.5c0-0.2,0.1-0.4,0.2-0.4c0.1-0.1,0.2-0.1,0.3-0.1c0.2,0,0.3,0.1,0.4,0.1   c0.1,0.1,0.2,0.2,0.2,0.3C83.8,69.3,83.7,69.5,83.7,69.5z M86.6,70.4L86.6,70.4c-0.3,0-0.6-0.3-0.5-0.6c0-0.3,0.3-0.5,0.5-0.5   c0.2,0,0.3,0.1,0.4,0.2c0.1,0.1,0.1,0.2,0.1,0.4C87,70.2,86.8,70.4,86.6,70.4z M92.2,54.8c0.2-0.2,0.5-0.2,0.7-0.1c0,0,0,0,0.1,0.1   c0.2,0.2,0.2,0.5,0,0.7c-0.2,0.2-0.4,0.2-0.7,0.1c0,0,0,0-0.1,0C92,55.4,92,55.1,92.2,54.8z M92,49.1c0-0.1,0-0.2,0.1-0.2   c0.1-0.2,0.3-0.2,0.4-0.2c0.1,0,0.2,0,0.3,0.1c0.1,0,0.1,0.1,0.2,0.2c0.1,0.2,0.1,0.3,0,0.5c-0.1,0.2-0.3,0.2-0.4,0.2   c-0.1,0-0.2,0-0.3-0.1C92.1,49.5,92,49.2,92,49.1z M75.9,57c-0.1,0.2-0.3,0.2-0.4,0.2c-0.1,0-0.2,0-0.3-0.1   c-0.2-0.2-0.3-0.5-0.1-0.7c0.1-0.1,0.3-0.2,0.4-0.2c0.1,0,0.2,0,0.4,0.1C76,56.5,76,56.8,75.9,57z M45.3,47.4   c-0.2,0.3-0.4,0.3-0.7,0.2c0,0,0,0-0.1,0c-0.2-0.2-0.3-0.4-0.1-0.6c0.2-0.3,0.4-0.3,0.7-0.2c0,0,0,0,0.1,0   C45.4,46.9,45.5,47.2,45.3,47.4z M15.1,48.7c-0.1,0.2-0.2,0.2-0.3,0.2c-0.1,0-0.2,0-0.4-0.1l-0.1,0c-0.2-0.2-0.3-0.4-0.1-0.7   c0.2-0.3,0.4-0.3,0.7-0.2c0,0,0,0,0.1,0C15.2,48.2,15.3,48.4,15.1,48.7z M8.1,54.1c-0.1,0.2-0.3,0.2-0.4,0.2c-0.1,0-0.2,0-0.4-0.1   c-0.1-0.1-0.2-0.3-0.2-0.3c0-0.1,0-0.2,0.1-0.4c0.1-0.1,0.2-0.2,0.3-0.2c0.1,0,0.2,0,0.4,0.1c0.1,0.1,0.2,0.3,0.2,0.3   C8.2,53.9,8.2,54,8.1,54.1z M9,52c-0.1,0.1-0.3,0.2-0.4,0.2c-0.1,0-0.2,0-0.4-0.1c-0.1-0.1-0.2-0.3-0.2-0.4c0-0.1,0-0.2,0.1-0.4   c0.1-0.1,0.3-0.2,0.4-0.2c0.1,0,0.2,0,0.4,0.1c0.1,0.1,0.2,0.3,0.2,0.4C9.1,51.7,9.1,51.9,9,52z M11.5,53c0,0.2-0.2,0.4-0.4,0.5   l-0.1,0c0,0-0.1,0-0.1,0c-0.2,0-0.4-0.2-0.4-0.4c0-0.3,0.1-0.5,0.4-0.6c0,0,0,0,0,0c0.3,0,0.5,0.2,0.6,0.4   C11.5,52.9,11.5,53,11.5,53z M12.7,62.8L12.7,62.8c-0.3,0-0.5-0.2-0.6-0.4c0-0.2,0.1-0.3,0.1-0.4c0.1-0.1,0.2-0.2,0.3-0.2h0   c0.3,0,0.6,0.2,0.6,0.5C13.2,62.5,13,62.8,12.7,62.8z M14,67.1L14,67.1c-0.3,0-0.6-0.1-0.6-0.4c0-0.2,0-0.3,0.1-0.4   c0-0.1,0.2-0.2,0.3-0.2l0,0c0.3,0,0.6,0.2,0.6,0.4C14.5,66.7,14.3,67,14,67.1z M15.3,49.8C15.2,49.9,15.1,50,15,50   c-0.1,0-0.2,0-0.4-0.1l0,0c-0.2-0.2-0.3-0.5-0.1-0.7c0.1-0.2,0.3-0.2,0.3-0.2c0.1,0,0.2,0,0.4,0c0,0,0,0,0,0   C15.3,49.2,15.4,49.6,15.3,49.8z M16.1,74.8C16.1,74.8,16.1,74.8,16.1,74.8c-0.4,0-0.5-0.3-0.5-0.6c0-0.3,0.3-0.5,0.5-0.5   c0.2,0,0.4,0.1,0.4,0.2c0.1,0.1,0.1,0.2,0.1,0.4C16.6,74.6,16.4,74.8,16.1,74.8z M17.7,67.2c-0.2,0.2-0.5,0.2-0.7,0.1   c0,0,0,0-0.1,0c-0.2-0.2-0.2-0.5,0-0.7c0.2-0.2,0.5-0.2,0.7-0.1c0.2,0.2,0.2,0.3,0.2,0.4C17.9,66.9,17.9,67.1,17.7,67.2z    M18.1,52.2c0.1-0.2,0.3-0.2,0.4-0.2c0.1,0,0.2,0,0.3,0.1c0.2,0.2,0.3,0.5,0.1,0.7C18.8,53,18.6,53,18.5,53c-0.1,0-0.2,0-0.3-0.1   C18,52.8,17.9,52.5,18.1,52.2z M18.8,62.6c-0.1,0.1-0.2,0.1-0.3,0.1c-0.1,0-0.3,0-0.4-0.2c-0.2-0.2-0.1-0.6,0.1-0.7   c0.1-0.1,0.2-0.1,0.3-0.1c0.1,0,0.3,0.1,0.4,0.2C19.1,62.2,19,62.5,18.8,62.6z M20,79.6C20,79.6,20,79.6,20,79.6   c-0.4,0-0.6-0.2-0.6-0.5c0-0.3,0.2-0.5,0.5-0.5c0.2,0,0.4,0.1,0.4,0.2c0.1,0.1,0.2,0.2,0.1,0.4C20.5,79.4,20.3,79.6,20,79.6z    M21.2,74.7L21.2,74.7c-0.2,0.2-0.5,0.2-0.7,0c-0.2-0.2-0.2-0.5,0-0.7c0,0,0,0,0,0c0.2-0.2,0.5-0.2,0.7,0c0.1,0.1,0.2,0.3,0.2,0.3   C21.4,74.4,21.4,74.6,21.2,74.7z M21.7,67.3c-0.1,0.1-0.2,0.1-0.3,0.1c-0.1,0-0.3,0-0.4-0.2c-0.2-0.2-0.2-0.5,0.1-0.7   c0.1-0.1,0.2-0.1,0.3-0.1c0.1,0,0.3,0,0.4,0.2C22,66.8,21.9,67.1,21.7,67.3z M24.7,84.8C24.7,84.8,24.6,84.8,24.7,84.8   c-0.4,0-0.5-0.3-0.5-0.6c0-0.3,0.2-0.5,0.5-0.5c0.2,0,0.4,0.1,0.4,0.2c0.1,0.1,0.1,0.2,0.1,0.4C25.1,84.6,24.9,84.8,24.7,84.8z    M27,70.4c-0.1-0.1-0.2-0.3-0.2-0.4c0-0.1,0-0.2,0.1-0.4c0,0,0,0,0,0c0.2-0.2,0.6-0.2,0.7,0c0.2,0.2,0.2,0.5,0,0.7l0,0   C27.5,70.6,27.2,70.6,27,70.4z M28.4,82c0,0.1-0.1,0.2-0.2,0.3c-0.1,0.1-0.2,0.2-0.5,0.1c-0.3-0.1-0.4-0.3-0.4-0.6   c0-0.1,0.1-0.2,0.2-0.3c0.1-0.1,0.3-0.2,0.5-0.1C28.3,81.4,28.4,81.7,28.4,82z M29.8,86.5C29.8,86.5,29.8,86.5,29.8,86.5   c-0.4,0-0.6-0.2-0.6-0.5c0-0.3,0.2-0.5,0.5-0.5c0.3,0,0.4,0.1,0.4,0.2c0.1,0.1,0.1,0.2,0.1,0.4C30.3,86.3,30.1,86.5,29.8,86.5z    M31.1,84.8c0,0.1-0.2,0.2-0.3,0.2c-0.2,0-0.3,0-0.4-0.1c-0.1-0.1-0.2-0.2-0.2-0.3c0-0.2,0-0.3,0.1-0.4c0-0.1,0.1-0.2,0.3-0.2   c0.2,0,0.4,0.1,0.4,0.1c0.1,0,0.2,0.1,0.2,0.3C31.2,84.6,31.2,84.7,31.1,84.8z M31.7,72.2c0-0.3,0.2-0.5,0.5-0.5   c0.2,0,0.4,0.1,0.4,0.2c0.1,0.1,0.1,0.2,0.1,0.4c0,0.2-0.3,0.5-0.5,0.5l0,0c-0.2,0-0.3-0.1-0.3-0.2C31.7,72.5,31.6,72.3,31.7,72.2z    M32.4,79.2L32.4,79.2c-0.4,0-0.5-0.3-0.5-0.5c0-0.3,0.2-0.5,0.5-0.5c0.3,0,0.5,0.3,0.5,0.6C32.9,79,32.7,79.2,32.4,79.2z    M32.9,77.5c-0.1-0.3,0.1-0.5,0.4-0.6c0.2,0,0.3,0,0.4,0.1c0.1,0.1,0.2,0.2,0.2,0.3c0,0.2,0,0.3-0.1,0.4c0,0.1-0.1,0.2-0.3,0.2   c-0.2,0-0.3,0-0.4-0.1C33,77.7,32.9,77.6,32.9,77.5z M34.4,91.3C34.4,91.3,34.4,91.3,34.4,91.3c-0.1,0.1-0.1,0.1-0.1,0.1   c0,0.1,0,0.1,0,0.3c0,0.3-0.2,0.4-0.5,0.4c0,0,0,0-0.1,0c-0.3,0-0.5-0.3-0.4-0.6c0-0.2,0.2-0.3,0.3-0.4c-0.1-0.2-0.1-0.4,0.1-0.6   c0.2-0.1,0.4-0.1,0.4-0.1c0.1,0,0.2,0.1,0.3,0.2C34.7,90.8,34.6,91.1,34.4,91.3z M36.1,70.8c-0.1-0.1-0.2-0.2-0.2-0.4   c0-0.3,0.2-0.5,0.5-0.5c0.1,0,0.2,0.1,0.3,0.1c0.1,0.1,0.2,0.2,0.2,0.4c0,0.3-0.3,0.5-0.5,0.5C36.3,70.9,36.2,70.9,36.1,70.8z    M37.5,89.3c0,0.1-0.1,0.2-0.2,0.3c-0.1,0.1-0.2,0.2-0.5,0.1c-0.3-0.1-0.4-0.3-0.4-0.6c0-0.1,0.1-0.2,0.2-0.3   c0.1-0.1,0.3-0.2,0.5-0.1C37.4,88.7,37.6,89,37.5,89.3z M37.2,81.9L37.2,81.9c-0.4,0-0.6-0.2-0.6-0.5c0-0.3,0.2-0.5,0.5-0.5   c0.3,0,0.6,0.2,0.6,0.5C37.7,81.7,37.5,81.9,37.2,81.9z M37.9,58.8c0,5.2-4.2,9.4-9.4,9.4c-0.8,0-1.7-0.1-2.4-0.3   c0.1,0,0.1,0,0.2,0.1c0.3,0.2,0.3,0.6,0.1,0.8c-0.2,0.2-0.5,0.2-0.7,0.1l0,0c-0.2-0.2-0.2-0.5-0.1-0.7c0.1-0.2,0.3-0.2,0.5-0.2   c-4-1.1-6.9-4.7-6.9-9c0,0,0,0,0,0c0,0,0,0,0,0c0-2.6,1.1-5.1,3-6.8v-5.7V25.2c0-3.5,2.8-6.3,6.3-6.3c3.5,0,6.3,2.8,6.3,6.3h0v21.2   v5.6C36.8,53.7,37.9,56.1,37.9,58.8C37.9,58.8,37.9,58.8,37.9,58.8C37.9,58.8,37.9,58.8,37.9,58.8z M38,48.7   c-0.1,0.2-0.5,0.3-0.7,0.2l-0.1,0c-0.2-0.2-0.3-0.4-0.1-0.7c0.1-0.2,0.2-0.2,0.3-0.2c0.1,0,0.2,0,0.4,0c0,0,0,0,0,0   C38.1,48.1,38.2,48.5,38,48.7z M39.2,64c-0.2,0.2-0.5,0.2-0.7,0.1l0,0c-0.1-0.1-0.2-0.3-0.2-0.4c0-0.1,0-0.2,0.1-0.4   c0.2-0.2,0.5-0.2,0.7-0.1C39.3,63.5,39.4,63.8,39.2,64z M39.3,57.4c-0.1,0-0.2-0.1-0.3-0.2c-0.2-0.2-0.1-0.5,0.1-0.7c0,0,0,0,0.1,0   c0.2-0.2,0.5-0.1,0.7,0.1c0.2,0.2,0.1,0.5-0.1,0.7l0,0C39.6,57.5,39.4,57.5,39.3,57.4z M40.3,74.8C40.3,74.8,40.3,74.8,40.3,74.8   c-0.3,0-0.5-0.1-0.6-0.4c0-0.2,0-0.3,0.1-0.4c0.1-0.1,0.2-0.2,0.3-0.2c0,0,0,0,0,0c0.3,0,0.5,0.1,0.6,0.4   C40.8,74.5,40.6,74.8,40.3,74.8z M41.4,62.1c0-0.1,0-0.2,0.1-0.4c0,0,0,0,0,0c0.2-0.2,0.5-0.2,0.7,0c0.2,0.2,0.2,0.5,0,0.7   c0,0,0,0-0.1,0.1c-0.2,0.2-0.5,0.2-0.7,0C41.4,62.3,41.4,62.2,41.4,62.1z M42.2,68.4L42.2,68.4c-0.3,0-0.6-0.1-0.6-0.4   c0-0.2,0-0.3,0.1-0.4c0-0.1,0.2-0.2,0.3-0.2c0,0,0,0,0,0c0.3,0,0.5,0.2,0.6,0.4C42.7,68.1,42.5,68.3,42.2,68.4z M43.8,54.9   c-0.1,0.2-0.5,0.3-0.7,0.2l0,0c-0.2-0.2-0.3-0.5-0.1-0.7c0.2-0.3,0.4-0.3,0.7-0.2c0,0,0,0,0,0C43.9,54.4,43.9,54.6,43.8,54.9z    M44.3,51.2c0-0.1,0-0.2,0.1-0.4c0.1-0.1,0.3-0.2,0.4-0.2c0.1,0,0.2,0,0.4,0.1c0.2,0.2,0.2,0.5,0,0.7c-0.1,0.1-0.3,0.2-0.4,0.2   c-0.1,0-0.2,0-0.3-0.1C44.3,51.5,44.3,51.3,44.3,51.2z M45.5,57.6c-0.1,0.1-0.3,0.1-0.3,0.1c-0.1,0-0.3,0-0.4-0.2   c-0.1-0.1-0.1-0.3-0.1-0.4c0-0.1,0-0.2,0.2-0.4c0.1-0.1,0.3-0.1,0.4-0.1c0.1,0,0.2,0,0.4,0.2c0.1,0.1,0.1,0.3,0.1,0.4   C45.6,57.4,45.6,57.5,45.5,57.6z M48.5,54.7c-0.2,0.2-0.4,0.2-0.7,0.1c0,0,0,0-0.1,0c-0.2-0.2-0.2-0.5,0-0.7   c0.2-0.2,0.5-0.2,0.7-0.1c0,0,0,0,0.1,0.1C48.7,54.2,48.7,54.4,48.5,54.7z M53.8,49.1c-0.2,0.2-0.5,0.2-0.7,0.1l0,0   c-0.1-0.1-0.2-0.3-0.2-0.4c0-0.1,0-0.2,0.1-0.4c0.2-0.2,0.5-0.2,0.7-0.1c0,0,0,0,0.1,0C54,48.6,54,48.9,53.8,49.1z M56,49.8   c0.1-0.2,0.2-0.2,0.3-0.2c0.1,0,0.2,0,0.4,0c0,0,0,0,0,0c0.2,0.2,0.3,0.5,0.2,0.7c-0.1,0.2-0.5,0.3-0.7,0.2l-0.1,0   C55.9,50.3,55.8,50,56,49.8z M56.1,56.2c-0.2-0.2-0.1-0.5,0.1-0.7c0.1-0.1,0.2-0.1,0.3-0.1c0.1,0,0.3,0,0.4,0.2   c0.2,0.2,0.2,0.5-0.1,0.7c-0.1,0.1-0.2,0.1-0.3,0.1C56.4,56.3,56.2,56.3,56.1,56.2z M57.6,73.5c-0.2,0.2-0.5,0.2-0.7,0.1l0,0   c-0.1-0.1-0.2-0.3-0.2-0.4c0-0.1,0-0.2,0.1-0.4c0.2-0.2,0.5-0.2,0.7-0.1C57.8,73,57.8,73.3,57.6,73.5z M57.7,65.7   c-0.1,0.2-0.3,0.2-0.4,0.3c-0.1,0-0.2,0-0.3-0.1c-0.3-0.2-0.3-0.5-0.2-0.7c0.1-0.2,0.3-0.2,0.4-0.2c0.1,0,0.2,0,0.3,0.1   C57.8,65.2,57.8,65.5,57.7,65.7z M58.8,54.3c0,0.1-0.2,0.2-0.3,0.2c-0.2,0-0.3,0-0.4-0.1c-0.1-0.1-0.2-0.2-0.2-0.3   c-0.1-0.3,0.1-0.6,0.4-0.6c0.2,0,0.3,0.1,0.4,0.1c0.1,0,0.2,0.2,0.2,0.3C58.9,54.1,58.9,54.2,58.8,54.3z M60.4,51.1   c-0.1,0-0.2,0.2-0.4,0.1c-0.2,0-0.3-0.1-0.3-0.2c-0.1-0.1-0.1-0.2-0.1-0.4c0-0.2,0.1-0.3,0.2-0.4c0.1-0.1,0.2-0.1,0.4-0.1   c0.2,0,0.3,0.1,0.4,0.2c0.1,0.1,0.1,0.2,0.1,0.4C60.5,50.9,60.4,51,60.4,51.1z M62.6,47.2L62.6,47.2c-0.2,0.2-0.5,0.2-0.7,0   c-0.1-0.1-0.2-0.3-0.2-0.3c0-0.1,0-0.3,0.1-0.4c0,0,0,0,0,0c0.2-0.2,0.5-0.2,0.7,0C62.8,46.7,62.8,47,62.6,47.2z M64.6,50.8   L64.6,50.8C64.3,51,64,51,63.8,50.7c-0.1-0.2-0.1-0.5,0.1-0.7c0.2-0.1,0.3-0.1,0.4-0.1c0.1,0,0.2,0.1,0.3,0.2   C64.8,50.4,64.8,50.7,64.6,50.8z M65.6,53.1c-0.2,0-0.3,0-0.4-0.1C65.1,53,65,52.9,65,52.7c0-0.2,0-0.3,0.1-0.4   c0-0.1,0.1-0.2,0.3-0.2c0.2,0,0.3,0,0.4,0.1c0.1,0.1,0.2,0.2,0.2,0.3C66,52.8,65.9,53.1,65.6,53.1z M69.2,55.9   c-0.1,0.2-0.2,0.3-0.4,0.3l-0.1,0c-0.3,0-0.5-0.2-0.5-0.5c0-0.1,0-0.2,0.1-0.3c0.1-0.2,0.2-0.3,0.4-0.3c0.4,0,0.5,0.3,0.5,0.5   C69.3,55.7,69.3,55.8,69.2,55.9z M72.4,51.1L72.4,51.1c-0.3,0.2-0.6,0.1-0.8-0.1c-0.1-0.2-0.1-0.5,0.1-0.7c0.2-0.1,0.3-0.1,0.4-0.1   c0.1,0,0.2,0.1,0.3,0.2C72.6,50.6,72.5,50.9,72.4,51.1z M73.7,68.4C73.7,68.4,73.7,68.4,73.7,68.4c-0.3,0-0.5-0.1-0.6-0.4   c0-0.2,0-0.3,0.1-0.4c0.1-0.1,0.2-0.2,0.3-0.2l0,0c0.3,0,0.5,0.1,0.6,0.4C74.2,68.1,74,68.3,73.7,68.4z M74.5,48.9   c0.1-0.2,0.3-0.3,0.5-0.3c0.1,0,0.2,0,0.3,0.1c0.1,0.1,0.2,0.2,0.2,0.4c0,0.3-0.2,0.5-0.5,0.5c-0.1,0-0.2,0-0.3-0.1L74.5,48.9z    M75.8,67.1c-0.1,0.2-0.3,0.2-0.4,0.2c-0.1,0-0.2,0-0.3-0.1c-0.2-0.2-0.3-0.5-0.1-0.7c0.1-0.1,0.3-0.2,0.4-0.2c0.1,0,0.2,0,0.4,0.1   C75.9,66.6,76,66.9,75.8,67.1z M76.1,60.8L76.1,60.8c-0.3,0-0.6-0.3-0.5-0.6c0-0.3,0.3-0.5,0.5-0.5c0.2,0,0.3,0.1,0.4,0.2   c0.1,0.1,0.1,0.2,0.1,0.4C76.6,60.6,76.4,60.8,76.1,60.8z M78.6,54.5c-0.1,0.3-0.4,0.3-0.7,0.2l-0.1,0c-0.2-0.2-0.3-0.4-0.1-0.7   c0.1-0.1,0.2-0.2,0.3-0.2c0.1,0,0.2,0,0.4,0c0,0,0,0,0,0C78.6,54,78.7,54.3,78.6,54.5z M80.6,51.2c-0.3,0-0.5-0.2-0.5-0.4   c0-0.2,0-0.3,0.1-0.4c0.1-0.1,0.2-0.2,0.4-0.2c0,0,0,0,0,0c0.3,0,0.5,0.2,0.5,0.5C81.1,51,80.9,51.2,80.6,51.2   C80.6,51.2,80.6,51.2,80.6,51.2z M81.2,54.3c-0.2,0-0.3-0.1-0.4-0.2c-0.1-0.1-0.1-0.2-0.1-0.4c0-0.2,0.1-0.3,0.2-0.3   c0.1,0,0.2-0.2,0.4-0.1c0.2,0,0.3,0.1,0.3,0.2c0.1,0.1,0.1,0.2,0.1,0.4c0,0.2-0.1,0.3-0.2,0.4C81.5,54.3,81.4,54.4,81.2,54.3z    M82.6,57.9c-0.1,0.2-0.3,0.2-0.4,0.2c-0.1,0-0.2,0-0.4-0.1c-0.1-0.1-0.2-0.3-0.2-0.3c0-0.1,0-0.2,0.1-0.4c0.1-0.1,0.2-0.2,0.3-0.2   c0.1,0,0.2,0,0.4,0.1c0.1,0.1,0.2,0.3,0.2,0.3C82.7,57.6,82.7,57.8,82.6,57.9z M83.4,55.8C83.3,55.9,83.1,56,83,56   c-0.1,0-0.2,0-0.4-0.1c-0.1-0.1-0.2-0.3-0.2-0.4c0-0.1,0-0.2,0.1-0.4c0.1-0.1,0.3-0.2,0.4-0.2c0.1,0,0.2,0,0.4,0.1   c0.1,0.1,0.2,0.3,0.2,0.4C83.6,55.5,83.5,55.7,83.4,55.8z M84,47.7L84,47.7c-0.3,0-0.6-0.2-0.6-0.5c0-0.2,0.1-0.3,0.1-0.4   c0.1-0.1,0.2-0.2,0.4-0.2c0,0,0,0,0,0c0.3,0,0.5,0.2,0.6,0.5C84.5,47.4,84.3,47.7,84,47.7z M85.6,52.1   C85.6,52.1,85.6,52.1,85.6,52.1c-0.3,0-0.5-0.1-0.6-0.4c0-0.2,0-0.3,0.1-0.4c0.1-0.1,0.2-0.2,0.3-0.2c0,0,0,0,0,0   c0.3,0,0.5,0.1,0.6,0.4C86.1,51.8,85.9,52,85.6,52.1z M88.2,72.5c0,0.1-0.2,0.2-0.3,0.2l0,0c-0.1,0-0.3-0.1-0.4-0.1   c0.2-0.3,0.4-0.6,0.5-0.9c0.2,0.1,0.3,0.2,0.3,0.4C88.3,72.3,88.2,72.5,88.2,72.5z M88.7,60.9c-0.1-0.1-0.2-0.3-0.2-0.3   c0-0.1,0-0.3,0.1-0.4c0,0,0,0,0,0c0.2-0.2,0.5-0.2,0.7,0c0.2,0.2,0.2,0.5,0,0.7l0,0C89.1,61.1,88.9,61.1,88.7,60.9z M90.1,63.1   c-0.1,0.1-0.2,0.1-0.3,0.1c-0.3,0-0.5-0.2-0.6-0.4c0-0.2,0.1-0.4,0.2-0.4c0.1-0.1,0.2-0.1,0.3-0.1c0.3,0,0.5,0.2,0.6,0.5   C90.2,62.9,90.1,63,90.1,63.1z M92,62.5c0.1-0.2,0.3-0.2,0.4-0.2c0.1,0,0.2,0,0.3,0.1c0.2,0.1,0.2,0.3,0.2,0.3c0,0.1,0,0.2,0,0.3   c0,0,0,0.1,0,0.1c-0.1,0.2-0.3,0.2-0.4,0.2c-0.1,0-0.2,0-0.3-0.1c-0.1-0.1-0.2-0.2-0.2-0.3C91.9,62.8,91.9,62.7,92,62.5z    M92.8,65.6L92.8,65.6c-0.2,0.2-0.5,0.2-0.7,0c-0.2-0.2-0.2-0.5,0-0.7c0,0,0,0,0.1-0.1c0.2-0.2,0.5-0.2,0.7,0   c0.1,0.1,0.2,0.3,0.2,0.4C92.9,65.4,92.9,65.5,92.8,65.6z M93.6,57.2L93.6,57.2c-0.2,0.2-0.6,0.2-0.7,0c-0.1-0.1-0.2-0.3-0.2-0.4   c0-0.1,0-0.3,0.1-0.4c0,0,0,0,0,0c0.2-0.2,0.5-0.2,0.7,0c0.1,0.1,0.2,0.3,0.2,0.4C93.7,56.9,93.7,57.1,93.6,57.2z"/>
		<polygon points="80.4,64 80.8,64.3 80.9,64.3 80.4,63.9 77.2,61.5 77.2,61.5  "/>
		<path d="M54.6,96.1C54.6,96.1,54.6,96.1,54.6,96.1c0-0.9-0.1-1.9-0.1-2.8C54.6,94.2,54.6,95.2,54.6,96.1z"/>
		<polygon points="87.2,68.9 87.3,68.1 88.8,56.7 88.8,56.7 87.2,69.1 83.9,66.6 83.8,66.5 84,66.7 84,66.7 87.2,69.1  "/>
		<path d="M74.5,89.6c0.1-0.9,0.3-1.9,0.4-2.8c0-0.2,0.1-0.5,0.1-0.7c0.1-0.3,0.1-0.6,0.2-1c1.6-7.2,4.4-13.5,8.2-17.8l0.5-0.5l0,0   l-0.5,0.5c-4.1,4.7-7.2,11.6-8.6,19.5C74.7,87.6,74.6,88.6,74.5,89.6C74.5,89.6,74.5,89.6,74.5,89.6z"/>
	</g>
</svg>