<?xml version="1.0" encoding="utf-8"?>
<!-- Generator: Adobe Illustrator 24.2.0, SVG Export Plug-In . SVG Version: 6.00 Build 0)  -->
<svg version="1.1" id="Layer_1" xmlns="http://www.w3.org/2000/svg" xmlns:xlink="http://www.w3.org/1999/xlink" x="0px" y="0px"
	 viewBox="0 0 32 32" style="enable-background:new 0 0 32 32;" xml:space="preserve">
<style type="text/css">
	.st0{fill:#894EC5;}
</style>
<path class="st0" d="M31.5,31H29c-0.6-1.5-1.1-3-1.5-4.5c-0.6-2.1-1-4.2-1.3-6.4l0,0c-0.1-0.6-0.1-1.3-0.2-1.9v-1.8l0,0
	c0-0.3-0.2-0.5-0.5-0.5c0,0,0,0,0,0h-8.2c0-0.2,0-0.5,0-0.7s0-0.6,0-0.9s0-0.5,0-0.6s0-0.1,0-0.2v-0.1c0-0.1,0-0.3-0.1-0.4
	c-0.1-0.1-0.2-0.2-0.4-0.2H7.1c-0.3,0-0.5,0.2-0.5,0.5c0,0,0,0,0,0.1v0.1c0,0.1,0,0.4,0,0.8s0,0.6,0,0.9c0,0.9-0.1,1.8-0.2,2.7l0,0
	c-0.5,4.5-1.7,9-3.5,13.2H0.5c-0.3-0.1-0.6,0.1-0.6,0.4S0,31.9,0.2,32c0.1,0,0.2,0,0.3,0h31c0.3,0.1,0.6-0.1,0.6-0.4
	c0.1-0.3-0.1-0.6-0.4-0.6C31.7,31,31.6,31,31.5,31L31.5,31z M25,16.9v1.3c0,0.6,0.1,1.3,0.1,1.8h-3.6c-0.3-0.1-0.6,0.1-0.6,0.4
	s0.1,0.6,0.4,0.6c0.1,0,0.2,0,0.3,0h3.8c0.3,1.9,0.7,3.9,1.2,5.8c0.4,1.5,0.9,2.9,1.4,4.3h-6.8c-1.9-4.5-3.1-9.2-3.6-14.1L25,16.9z
	 M7.6,13.9h8.6v0.4c0,0.3,0,0.6,0,0.9c0,0.8,0.1,1.5,0.2,2.2h-9c0.1-0.7,0.1-1.5,0.2-2.2c0-0.3,0-0.6,0-0.9L7.6,13.9z M7.3,18.4h9.2
	c0.6,4.3,1.7,8.6,3.4,12.6H4C5.7,27,6.8,22.7,7.3,18.4L7.3,18.4z"/>
<path class="st0" d="M22.5,0c-0.3,0-0.5,0.2-0.5,0.5c0,0,0,0,0,0c0,0.8-0.3,1.5-0.8,2c-0.5,0.5-1.2,0.8-2,0.8h-3.5
	c-2.2,0-3.9,1.7-3.9,3.9c0.1,0.3,0.4,0.4,0.6,0.4c0.2,0,0.3-0.2,0.4-0.4c0-1.6,1.3-2.9,2.8-2.9c0,0,0,0,0,0H19
	c2.1,0,3.9-1.7,3.9-3.8c0,0,0,0,0,0C23,0.2,22.8,0,22.5,0C22.5,0,22.5,0,22.5,0z"/>
<path class="st0" d="M21.5,11.4c0.3,0,0.5-0.2,0.5-0.5v0c0-1.1,0.9-2,1.9-2h2.5c1.7,0,3-1.3,3-3c-0.1-0.3-0.4-0.4-0.6-0.4
	c-0.2,0-0.3,0.2-0.4,0.4c0,1.1-0.8,2-1.9,2c0,0,0,0-0.1,0H24c-1.7,0-3,1.3-3,3C21,11.2,21.2,11.4,21.5,11.4
	C21.5,11.4,21.5,11.4,21.5,11.4z"/>
</svg>
