<?xml version="1.0" encoding="utf-8"?>
<!-- Generator: Adobe Illustrator 24.2.0, SVG Export Plug-In . SVG Version: 6.00 Build 0)  -->
<svg version="1.1" id="Layer_1" xmlns="http://www.w3.org/2000/svg" xmlns:xlink="http://www.w3.org/1999/xlink" x="0px" y="0px"
	 viewBox="0 0 32 32" style="enable-background:new 0 0 32 32;" xml:space="preserve">
<style type="text/css">
	.st0{fill:none;}
	.st1{fill:#894EC5;}
</style>
<rect class="st0" width="32" height="32"/>
<g>
	<path class="st1" d="M22.7,8.3V6.7c0-0.3-0.2-0.5-0.5-0.5h-1.5v-1h1v-1h-1v-1h3.1v-1h-3.6c-0.3,0-0.5,0.2-0.5,0.5v1.5h-1V2.1
		c0-0.6,0.5-1,1-1h4.1V0h-4.1c-1.1,0-2.1,0.9-2.1,2.1v2.1h-1v1h1v1h-3.1v-1h1v-1h-1V2.1C14.5,1,13.6,0,12.4,0H8.3v1h4.1
		c0.6,0,1,0.5,1,1v2.1h-1V2.6c0-0.3-0.2-0.5-0.5-0.5H8.3v1h3.1v1h-1v1h1v1H9.8c-0.3,0-0.5,0.2-0.5,0.5v1.6C7.6,8.5,6.2,10,6.2,11.8
		v12.4c0,1.8,1.3,3.3,3.1,3.6v3.7c0,0.3,0.2,0.5,0.5,0.5h2.1c0.3,0,0.5-0.2,0.5-0.5V30h7.2v1.5c0,0.3,0.2,0.5,0.5,0.5h2.1
		c0.3,0,0.5-0.2,0.5-0.5v-3.7c1.7-0.3,3.1-1.8,3.1-3.6V11.9C25.8,10.1,24.5,8.6,22.7,8.3z M21.7,7.2v1h-1v-1H21.7z M18.6,8.3v-1h1v1
		H18.6z M18.6,5.2h1v1h-1V5.2z M17.5,7.2v1h-3.1v-1H17.5z M12.4,8.3v-1h1v1H12.4z M12.4,5.2h1v1h-1V5.2z M11.4,7.2v1h-1v-1H11.4z
		 M21.7,31h-1v-1.5c0-0.3-0.2-0.5-0.5-0.5h-8.3c-0.3,0-0.5,0.2-0.5,0.5V31h-1v-3.1h11.4L21.7,31L21.7,31z M20.2,17.3
		c-0.6,1.2-1.7,2.1-2.9,2.4L16.5,20v-0.9c0-1.4,1.2-2.6,2.6-2.6h3.6V18c0,1.4-1.2,2.6-2.6,2.6h-2.3c1.4-0.5,2.6-1.5,3.3-2.9
		L20.2,17.3z M15.5,22l-0.7-0.2c-1.3-0.4-2.3-1.3-2.9-2.4L11,19.9c0.7,1.4,1.9,2.4,3.3,2.9H12c-1.4,0-2.6-1.2-2.6-2.6v-1.5H13
		c1.4,0,2.6,1.2,2.6,2.6V22H15.5z M24.8,24.3c0,1.4-1.2,2.6-2.6,2.6h-5.7v-3.6v-1.5h3.6c2,0,3.6-1.6,3.6-3.6V16
		c0-0.3-0.2-0.5-0.5-0.5h-4.1c-1.8,0-3.4,1.4-3.6,3.2c-0.7-0.7-1.6-1.1-2.6-1.1H8.8c-0.3,0-0.5,0.2-0.5,0.5v2.1c0,2,1.6,3.6,3.6,3.6
		h3.6v3.1H9.8c-1.4,0-2.6-1.2-2.6-2.6V11.9c0-1.4,1.2-2.6,2.6-2.6h12.4c1.4,0,2.6,1.2,2.6,2.6C24.8,11.9,24.8,24.3,24.8,24.3z"/>
</g>
</svg>
